<?xml version="1.0" encoding="utf-8"?>
<!-- Generator: Adobe Illustrator 24.0.2, SVG Export Plug-In . SVG Version: 6.00 Build 0)  -->
<svg version="1.1" id="Layer_1" xmlns="http://www.w3.org/2000/svg" xmlns:xlink="http://www.w3.org/1999/xlink" x="0px" y="0px"
	 viewBox="0 0 544.1 260.72" style="enable-background:new 0 0 544.1 260.72;" xml:space="preserve">
<style type="text/css">
	.st0{fill:#FFFFFF;}
	.st1{fill:url(#SVGID_1_);}
	.st2{fill:url(#SVGID_2_);}
	.st3{fill:url(#SVGID_3_);}
	.st4{fill:url(#SVGID_4_);}
	.st5{fill:#231F20;}
	.st6{fill:#FFFFFF;stroke:#FFFFFF;stroke-miterlimit:10;}
	.st7{fill:url(#SVGID_5_);}
	.st8{fill:url(#SVGID_6_);}
	.st9{fill:url(#SVGID_7_);}
	.st10{fill:url(#SVGID_8_);}
</style>
<g>
	<path class="st0" d="M4864.44,3582.53c10.06-15.7,27.96-20.63,43.51-9.11c-12.67-20.73-22.97-42.17-37.95-60.66
		c-2.15-2.01-4.26-3.8-6.36-5.44c-51.09-40-86.82,26.66-111.02,67.17c-24.22,40.53-49.46,82.11-74.5,122.78
		c-24.72,40.14-53.04,79.33-75.32,120.83c-4.54,8.45,16.4,12.95,21.33,14.09c9.54,2.22,19.16,3.1,28.64,2.74
		c26.55-1,52.04-11.77,71.78-30.69c30.04-28.79,47.57-67.36,68.35-102.8c23.49-40.04,46.51-79.86,71.4-118.71
		C4864.35,3582.67,4864.39,3582.6,4864.44,3582.53z"/>
	<path class="st0" d="M5076.05,3512.76c-2.15-2.01-4.26-3.8-6.36-5.44c-51.09-40-86.82,26.66-111.02,67.17
		c-24.22,40.53-49.46,82.11-74.5,122.78c-24.72,40.14-53.04,79.33-75.32,120.83c-4.54,8.45,16.4,12.95,21.33,14.09
		c9.54,2.22,19.16,3.1,28.64,2.74c26.55-1,52.04-11.77,71.78-30.69c30.04-28.79,47.55-67.37,68.35-102.8
		c23.67-40.31,46.51-79.86,71.4-118.71c0.04-0.07,0.09-0.14,0.13-0.21c10.06-15.7,27.96-20.63,43.51-9.11
		C5101.34,3552.69,5091.03,3531.25,5076.05,3512.76z"/>
</g>
<g>
	<g>
		<g>
			<path d="M3581.55,3579.66c14.02-23.46,31.66-55.15,53.59-72.34c-51.09-40-86.82,26.66-111.02,67.17
				c-24.22,40.53-49.46,82.11-74.5,122.78c-24.72,40.14-53.04,79.33-75.32,120.83c-4.54,8.45,16.4,12.95,21.33,14.09
				c9.54,2.22,19.16,3.1,28.64,2.74c23.37-42.66,52.44-83.11,77.93-124.51C3528.87,3667.11,3555.76,3622.82,3581.55,3579.66z"/>
			<path d="M3564.41,3701.45c23.49-40.04,46.51-79.86,71.4-118.71c0.04-0.07,0.09-0.14,0.13-0.21c10.06-15.7,27.96-20.63,43.51-9.11
				c-12.67-20.73-22.97-42.17-37.95-60.66c-2.15-2.01-4.26-3.8-6.36-5.44c-21.93,17.2-39.58,48.88-53.59,72.34
				c-25.79,43.16-52.68,87.45-79.35,130.77c-25.49,41.4-54.57,81.86-77.93,124.51c26.55-0.99,52.04-11.77,71.78-30.69
				C3526.09,3775.46,3543.62,3736.89,3564.41,3701.45z"/>
		</g>
		<g>
			<path d="M3787.6,3579.66c14.02-23.46,31.66-55.15,53.59-72.34c-51.09-40-86.82,26.66-111.02,67.17
				c-24.22,40.53-49.46,82.11-74.5,122.78c-24.72,40.14-53.04,79.33-75.32,120.83c-4.54,8.45,16.4,12.95,21.33,14.09
				c9.54,2.22,19.16,3.1,28.64,2.74c23.37-42.66,52.44-83.11,77.93-124.51C3734.93,3667.11,3761.81,3622.82,3787.6,3579.66z"/>
			<path d="M3770.46,3701.45c23.67-40.31,46.51-79.86,71.4-118.71c0.04-0.07,0.09-0.14,0.13-0.21c10.06-15.7,27.96-20.63,43.51-9.11
				c-12.67-20.73-22.97-42.17-37.95-60.66c-2.15-2.01-4.26-3.8-6.36-5.44c-21.93,17.2-39.58,48.88-53.59,72.34
				c-25.79,43.16-52.68,87.45-79.35,130.77c-25.49,41.4-54.57,81.86-77.93,124.51c26.55-0.99,52.04-11.77,71.78-30.69
				C3732.15,3775.46,3749.65,3736.88,3770.46,3701.45z"/>
		</g>
	</g>
</g>
<g>
	<g>
		<g>
			<linearGradient id="SVGID_1_" gradientUnits="userSpaceOnUse" x1="2149.4197" y1="3798.7605" x2="2313.0676" y2="3536.5654">
				<stop  offset="0.0616" style="stop-color:#399DD7"/>
				<stop  offset="0.9907" style="stop-color:#50B4BC"/>
				<stop  offset="1" style="stop-color:#50B4BC"/>
			</linearGradient>
			<path class="st1" d="M2312.55,3579.66c14.02-23.46,31.66-55.15,53.59-72.34c-51.09-40-86.82,26.66-111.02,67.17
				c-24.22,40.53-49.46,82.11-74.5,122.78c-24.72,40.14-53.04,79.33-75.32,120.83c-4.54,8.45,16.4,12.95,21.33,14.09
				c9.54,2.22,19.16,3.1,28.64,2.74c23.37-42.66,52.44-83.11,77.93-124.51C2259.88,3667.11,2286.76,3622.82,2312.55,3579.66z"/>
			<linearGradient id="SVGID_2_" gradientUnits="userSpaceOnUse" x1="2362.2549" y1="3559.1733" x2="2217.719" y2="3823.1602">
				<stop  offset="0.0616" style="stop-color:#399DD7"/>
				<stop  offset="0.9907" style="stop-color:#50B4BC"/>
				<stop  offset="1" style="stop-color:#50B4BC"/>
			</linearGradient>
			<path class="st2" d="M2295.41,3701.45c23.49-40.04,46.51-79.86,71.4-118.71c0.04-0.07,0.09-0.14,0.13-0.21
				c10.06-15.7,27.96-20.63,43.51-9.11c-12.67-20.73-22.97-42.17-37.95-60.66c-2.15-2.01-4.26-3.8-6.36-5.44
				c-21.93,17.2-39.58,48.88-53.59,72.34c-25.79,43.16-52.68,87.45-79.35,130.77c-25.49,41.4-54.57,81.86-77.93,124.51
				c26.55-0.99,52.04-11.77,71.78-30.69C2257.1,3775.46,2274.62,3736.89,2295.41,3701.45z"/>
		</g>
		<g>
			<linearGradient id="SVGID_3_" gradientUnits="userSpaceOnUse" x1="2355.4729" y1="3798.7605" x2="2519.1208" y2="3536.5654">
				<stop  offset="0.0616" style="stop-color:#399DD7"/>
				<stop  offset="0.9907" style="stop-color:#50B4BC"/>
				<stop  offset="1" style="stop-color:#50B4BC"/>
			</linearGradient>
			<path class="st3" d="M2518.61,3579.66c14.02-23.46,31.66-55.15,53.59-72.34c-51.09-40-86.82,26.66-111.02,67.17
				c-24.22,40.53-49.46,82.11-74.5,122.78c-24.72,40.14-53.04,79.33-75.32,120.83c-4.54,8.45,16.4,12.95,21.33,14.09
				c9.54,2.22,19.16,3.1,28.64,2.74c23.37-42.66,52.44-83.11,77.93-124.51C2465.93,3667.11,2492.82,3622.82,2518.61,3579.66z"/>
			<linearGradient id="SVGID_4_" gradientUnits="userSpaceOnUse" x1="2568.3079" y1="3559.1733" x2="2423.772" y2="3823.1602">
				<stop  offset="0.0616" style="stop-color:#399DD7"/>
				<stop  offset="0.9907" style="stop-color:#50B4BC"/>
				<stop  offset="1" style="stop-color:#50B4BC"/>
			</linearGradient>
			<path class="st4" d="M2501.46,3701.45c23.67-40.31,46.51-79.86,71.4-118.71c0.04-0.07,0.09-0.14,0.13-0.21
				c10.06-15.7,27.96-20.63,43.51-9.11c-12.67-20.73-22.97-42.17-37.95-60.66c-2.15-2.01-4.26-3.8-6.36-5.44
				c-21.93,17.2-39.58,48.88-53.59,72.34c-25.79,43.16-52.68,87.45-79.35,130.77c-25.49,41.4-54.57,81.86-77.93,124.51
				c26.55-0.99,52.04-11.77,71.78-30.69C2463.15,3775.46,2480.65,3736.88,2501.46,3701.45z"/>
		</g>
	</g>
</g>
<g>
	<g>
		<g>
			<g>
				<path class="st0" d="M3329.31,4846.56l-1.91,5.83h-2.48l6.31-18.55h2.88l6.34,18.55h-2.56l-1.98-5.83H3329.31z M3335.4,4844.69
					l-1.84-5.34c-0.4-1.22-0.68-2.32-0.95-3.38h-0.06c-0.27,1.08-0.56,2.22-0.92,3.35l-1.83,5.37H3335.4z"/>
				<path class="st0" d="M3348.28,4849.47c1.07,0.67,2.63,1.2,4.28,1.2c2.45,0,3.89-1.28,3.89-3.16c0-1.72-1.01-2.73-3.51-3.67
					c-3.03-1.07-4.9-2.67-4.9-5.26c0-2.89,2.4-5.03,6.01-5.03c1.89,0,3.28,0.44,4.09,0.9l-0.67,1.96c-0.59-0.35-1.83-0.88-3.5-0.88
					c-2.55,0-3.51,1.51-3.51,2.77c0,1.72,1.13,2.57,3.69,3.56c3.15,1.23,4.73,2.74,4.73,5.46c0,2.84-2.1,5.35-6.49,5.35
					c-1.79,0-3.75-0.54-4.74-1.21L3348.28,4849.47z"/>
				<path class="st0" d="M3370,4833.84v10.99c0,4.14,1.84,5.89,4.34,5.89c2.73,0,4.51-1.82,4.51-5.89v-10.99h2.41v10.82
					c0,5.7-3,8.03-7.02,8.03c-3.78,0-6.64-2.16-6.64-7.92v-10.93H3370z"/>
				<path class="st0" d="M3390.84,4852.39v-18.55h2.63l5.94,9.37c1.35,2.18,2.43,4.12,3.31,6.04l0.06-0.03
					c-0.22-2.48-0.26-4.74-0.26-7.61v-7.77h2.26v18.55h-2.43l-5.9-9.4c-1.28-2.08-2.52-4.19-3.45-6.21l-0.08,0.03
					c0.14,2.35,0.17,4.59,0.17,7.65v7.93H3390.84z"/>
				<path class="st0" d="M3417.94,4835.87h-5.65v-2.03h13.73v2.03h-5.68v16.52h-2.41V4835.87z"/>
				<path class="st0" d="M3448.64,4842.93c0,6.37-3.88,9.76-8.61,9.76c-4.92,0-8.34-3.81-8.34-9.42c0-5.87,3.64-9.73,8.59-9.73
					C3445.34,4833.55,3448.64,4837.42,3448.64,4842.93z M3434.23,4843.23c0,3.97,2.16,7.52,5.93,7.52c3.8,0,5.94-3.49,5.94-7.71
					c0-3.69-1.92-7.54-5.91-7.54C3436.21,4835.49,3434.23,4839.17,3434.23,4843.23z"/>
				<path class="st0" d="M3456.86,4849.47c1.07,0.67,2.63,1.2,4.28,1.2c2.45,0,3.89-1.28,3.89-3.16c0-1.72-1.01-2.73-3.51-3.67
					c-3.03-1.07-4.9-2.67-4.9-5.26c0-2.89,2.4-5.03,6.01-5.03c1.89,0,3.28,0.44,4.09,0.9l-0.67,1.96c-0.59-0.35-1.83-0.88-3.5-0.88
					c-2.55,0-3.51,1.51-3.51,2.77c0,1.72,1.13,2.57,3.69,3.56c3.15,1.23,4.73,2.74,4.73,5.46c0,2.84-2.1,5.35-6.49,5.35
					c-1.79,0-3.75-0.54-4.74-1.21L3456.86,4849.47z"/>
				<path class="st0" d="M3487.47,4834.07c1.16-0.21,2.67-0.37,4.61-0.37c2.35,0,4.09,0.54,5.2,1.54c1.01,0.89,1.63,2.23,1.63,3.89
					c0,1.68-0.5,3-1.44,3.97c-1.28,1.36-3.33,2.03-5.67,2.03c-0.73,0-1.39-0.03-1.94-0.17v7.44h-2.39V4834.07z M3489.86,4843.01
					c0.53,0.15,1.2,0.21,1.99,0.21c2.9,0,4.66-1.43,4.66-3.96c0-2.46-1.75-3.66-4.38-3.66c-1.05,0-1.84,0.1-2.27,0.19V4843.01z"/>
				<path class="st0" d="M3509.95,4833.84v10.99c0,4.14,1.84,5.89,4.34,5.89c2.73,0,4.51-1.82,4.51-5.89v-10.99h2.41v10.82
					c0,5.7-3,8.03-7.02,8.03c-3.78,0-6.64-2.16-6.64-7.92v-10.93H3509.95z M3518.47,4829.64l-3.51,3.21H3513l2.54-3.21H3518.47z"/>
				<path class="st0" d="M3530.8,4834.1c1.06-0.23,2.71-0.4,4.37-0.4c2.4,0,3.94,0.41,5.09,1.35c0.96,0.73,1.55,1.83,1.55,3.28
					c0,1.79-1.2,3.37-3.13,4.06v0.08c1.77,0.42,3.83,1.88,3.83,4.65c0,1.58-0.63,2.81-1.59,3.69c-1.28,1.2-3.36,1.74-6.4,1.74
					c-1.66,0-2.92-0.11-3.72-0.21V4834.1z M3533.19,4841.7h2.2c2.5,0,3.99-1.33,3.99-3.13c0-2.15-1.63-3.02-4.05-3.02
					c-1.11,0-1.74,0.08-2.14,0.17V4841.7z M3533.19,4850.57c0.49,0.1,1.15,0.13,2.02,0.13c2.49,0,4.77-0.91,4.77-3.61
					c0-2.52-2.19-3.58-4.8-3.59h-2V4850.57z"/>
				<path class="st0" d="M3551.15,4833.84h2.41v16.53h7.93v2.02h-10.34V4833.84z"/>
				<path class="st0" d="M3572,4833.84v18.55h-2.41v-18.55H3572z"/>
				<path class="st0" d="M3594.57,4851.8c-0.86,0.43-2.64,0.88-4.9,0.88c-5.23,0-9.14-3.31-9.14-9.4c0-5.82,3.93-9.73,9.68-9.73
					c2.29,0,3.77,0.48,4.4,0.82l-0.59,1.95c-0.9-0.43-2.19-0.77-3.73-0.77c-4.35,0-7.23,2.78-7.23,7.65c0,4.54,2.61,7.44,7.1,7.44
					c1.47,0,2.96-0.29,3.93-0.76L3594.57,4851.8z"/>
				<path class="st0" d="M3618.3,4842.93c0,6.37-3.88,9.76-8.61,9.76c-4.92,0-8.34-3.81-8.34-9.42c0-5.87,3.64-9.73,8.59-9.73
					C3615.01,4833.55,3618.3,4837.42,3618.3,4842.93z M3603.89,4843.23c0,3.97,2.16,7.52,5.93,7.52c3.8,0,5.94-3.49,5.94-7.71
					c0-3.69-1.92-7.54-5.91-7.54C3605.87,4835.49,3603.89,4839.17,3603.89,4843.23z"/>
				<path class="st0" d="M3626.53,4849.47c1.07,0.67,2.63,1.2,4.28,1.2c2.45,0,3.89-1.28,3.89-3.16c0-1.72-1.01-2.73-3.51-3.67
					c-3.03-1.07-4.9-2.67-4.9-5.26c0-2.89,2.4-5.03,6.01-5.03c1.89,0,3.28,0.44,4.09,0.9l-0.67,1.96c-0.59-0.35-1.83-0.88-3.5-0.88
					c-2.55,0-3.51,1.51-3.51,2.77c0,1.72,1.13,2.57,3.69,3.56c3.15,1.23,4.73,2.74,4.73,5.46c0,2.84-2.1,5.35-6.49,5.35
					c-1.79,0-3.75-0.54-4.74-1.21L3626.53,4849.47z"/>
				<path class="st0" d="M3660.01,4852.39v-7.86l-5.88-10.69h2.74l2.61,5.13c0.71,1.41,1.27,2.53,1.84,3.83h0.06
					c0.51-1.22,1.14-2.43,1.86-3.84l2.67-5.11h2.71l-6.21,10.65v7.9H3660.01z"/>
				<path class="st0" d="M3700.44,4851.8c-0.86,0.43-2.64,0.88-4.9,0.88c-5.23,0-9.14-3.31-9.14-9.4c0-5.82,3.93-9.73,9.68-9.73
					c2.29,0,3.77,0.48,4.4,0.82l-0.59,1.95c-0.9-0.43-2.19-0.77-3.73-0.77c-4.35,0-7.23,2.78-7.23,7.65c0,4.54,2.61,7.44,7.1,7.44
					c1.47,0,2.96-0.29,3.93-0.76L3700.44,4851.8z"/>
				<path class="st0" d="M3724.16,4842.93c0,6.37-3.88,9.76-8.61,9.76c-4.92,0-8.34-3.81-8.34-9.42c0-5.87,3.64-9.73,8.59-9.73
					C3720.87,4833.55,3724.16,4837.42,3724.16,4842.93z M3709.75,4843.23c0,3.97,2.16,7.52,5.93,7.52c3.8,0,5.94-3.49,5.94-7.71
					c0-3.69-1.92-7.54-5.91-7.54C3711.73,4835.49,3709.75,4839.17,3709.75,4843.23z"/>
				<path class="st0" d="M3748.36,4844.25c-0.15-2.58-0.31-5.71-0.3-8h-0.07c-0.64,2.15-1.41,4.49-2.33,7.03l-3.28,9h-1.81
					l-3.02-8.83c-0.88-2.62-1.6-5-2.12-7.2h-0.06c-0.06,2.31-0.18,5.4-0.36,8.18l-0.49,7.96h-2.27l1.29-18.55h3.06l3.16,8.98
					c0.76,2.27,1.39,4.31,1.87,6.25h0.07c0.49-1.88,1.14-3.92,1.96-6.25l3.31-8.98h3.06l1.15,18.55h-2.35L3748.36,4844.25z"/>
				<path class="st0" d="M3762.67,4833.84v10.99c0,4.14,1.84,5.89,4.34,5.89c2.73,0,4.51-1.82,4.51-5.89v-10.99h2.41v10.82
					c0,5.7-3,8.03-7.02,8.03c-3.78,0-6.64-2.16-6.64-7.92v-10.93H3762.67z"/>
				<path class="st0" d="M3783.52,4852.39v-18.55h2.63l5.94,9.37c1.35,2.18,2.43,4.12,3.31,6.04l0.06-0.03
					c-0.22-2.48-0.26-4.74-0.26-7.61v-7.77h2.26v18.55h-2.43l-5.9-9.4c-1.28-2.08-2.52-4.19-3.45-6.21l-0.08,0.03
					c0.14,2.35,0.17,4.59,0.17,7.65v7.93H3783.52z"/>
				<path class="st0" d="M3809.48,4833.84v18.55h-2.41v-18.55H3809.48z"/>
				<path class="st0" d="M3832.05,4851.8c-0.86,0.43-2.64,0.88-4.9,0.88c-5.23,0-9.14-3.31-9.14-9.4c0-5.82,3.93-9.73,9.68-9.73
					c2.29,0,3.77,0.48,4.4,0.82l-0.59,1.95c-0.9-0.43-2.19-0.77-3.73-0.77c-4.35,0-7.23,2.78-7.23,7.65c0,4.54,2.61,7.44,7.1,7.44
					c1.47,0,2.96-0.29,3.93-0.76L3832.05,4851.8z"/>
				<path class="st0" d="M3843.61,4846.56l-1.92,5.83h-2.48l6.31-18.55h2.88l6.34,18.55h-2.56l-1.98-5.83H3843.61z M3849.7,4844.69
					l-1.84-5.34c-0.4-1.22-0.68-2.32-0.95-3.38h-0.06c-0.27,1.08-0.56,2.22-0.92,3.35l-1.83,5.37H3849.7z"/>
				<path class="st0" d="M3875.44,4851.8c-0.86,0.43-2.64,0.88-4.9,0.88c-5.23,0-9.14-3.31-9.14-9.4c0-5.82,3.93-9.73,9.68-9.73
					c2.29,0,3.77,0.48,4.4,0.82l-0.59,1.95c-0.9-0.43-2.19-0.77-3.73-0.77c-4.35,0-7.23,2.78-7.23,7.65c0,4.54,2.61,7.44,7.1,7.44
					c1.47,0,2.96-0.29,3.93-0.76L3875.44,4851.8z"/>
				<path class="st0" d="M3886.29,4833.84v18.55h-2.41v-18.55H3886.29z"/>
				<path class="st0" d="M3911.76,4842.93c0,6.37-3.88,9.76-8.61,9.76c-4.92,0-8.34-3.81-8.34-9.42c0-5.87,3.64-9.73,8.59-9.73
					C3908.47,4833.55,3911.76,4837.42,3911.76,4842.93z M3897.35,4843.23c0,3.97,2.16,7.52,5.93,7.52c3.8,0,5.94-3.49,5.94-7.71
					c0-3.69-1.92-7.54-5.91-7.54C3899.34,4835.49,3897.35,4839.17,3897.35,4843.23z M3907.3,4829.58l-3.51,3.21h-1.96l2.54-3.21
					H3907.3z"/>
				<path class="st0" d="M3920.31,4852.39v-18.55h2.63l5.94,9.37c1.35,2.18,2.43,4.12,3.31,6.04l0.06-0.03
					c-0.22-2.48-0.26-4.74-0.26-7.61v-7.77h2.26v18.55h-2.43l-5.9-9.4c-1.28-2.08-2.52-4.19-3.45-6.21l-0.08,0.03
					c0.14,2.35,0.17,4.59,0.17,7.65v7.93H3920.31z"/>
			</g>
		</g>
		<g>
			<g>
				<path class="st0" d="M3324.62,4796.18c-0.38-6.83-0.83-15.13-0.78-21.21h-0.2c-1.69,5.71-3.73,11.9-6.19,18.64l-8.68,23.85h-4.8
					l-8.01-23.42c-2.34-6.95-4.25-13.26-5.63-19.08h-0.17c-0.17,6.13-0.49,14.31-0.97,21.69l-1.31,21.11h-6.03l3.42-49.17h8.11
					l8.37,23.8c2.02,6.02,3.68,11.44,4.95,16.57h0.19c1.29-4.98,3.01-10.4,5.2-16.56l8.77-23.8h8.12l3.05,49.17h-6.24
					L3324.62,4796.18z"/>
				<path class="st0" d="M3353.21,4802.32l-5.08,15.46h-6.58l16.73-49.17h7.63l16.79,49.17h-6.79l-5.27-15.46H3353.21z
					 M3369.36,4797.35l-4.87-14.15c-1.07-3.21-1.81-6.15-2.53-8.97h-0.17c-0.7,2.87-1.47,5.88-2.44,8.89l-4.84,14.23H3369.36z"/>
				<path class="st0" d="M3430.45,4815.56c-2.85,1.08-8.49,2.71-15.12,2.71c-7.46,0-13.6-1.89-18.39-6.5
					c-4.24-4.08-6.85-10.6-6.84-18.26c0.02-14.67,10.11-25.4,26.59-25.4c5.68,0,10.19,1.25,12.3,2.25l-1.59,5.18
					c-2.62-1.19-5.9-2.1-10.86-2.1c-11.93,0-19.75,7.43-19.75,19.74c0,12.46,7.48,19.84,18.98,19.84c4.15,0,6.97-0.59,8.44-1.32
					v-14.65h-9.95v-5.08h16.19V4815.56z"/>
				<path class="st0" d="M3444.28,4817.78v-49.17h6.98l15.75,24.85c3.59,5.77,6.45,10.94,8.77,16.01l0.16-0.07
					c-0.57-6.57-0.69-12.56-0.69-20.18v-20.61h5.98v49.17h-6.45l-15.63-24.93c-3.38-5.51-6.69-11.12-9.15-16.47l-0.22,0.08
					c0.38,6.23,0.47,12.15,0.47,20.28v21.03H3444.28z"/>
				<path class="st0" d="M3504.44,4802.32l-5.08,15.46h-6.58l16.73-49.17h7.63l16.79,49.17h-6.79l-5.27-15.46H3504.44z
					 M3520.59,4797.35l-4.87-14.15c-1.07-3.21-1.81-6.15-2.53-8.97h-0.17c-0.7,2.87-1.47,5.88-2.44,8.89l-4.84,14.23H3520.59z"/>
				<path class="st0" d="M3545.29,4817.78v-49.17h6.98l15.75,24.85c3.59,5.77,6.45,10.94,8.77,16.01l0.16-0.07
					c-0.57-6.57-0.69-12.56-0.69-20.18v-20.61h5.98v49.17h-6.45l-15.63-24.93c-3.38-5.51-6.69-11.12-9.15-16.47l-0.22,0.08
					c0.38,6.23,0.47,12.15,0.47,20.28v21.03H3545.29z"/>
				<path class="st0" d="M3603.86,4768.6v49.17h-6.38v-49.17H3603.86z"/>
				<path class="st0" d="M3619.08,4817.78v-49.17h6.98l15.75,24.85c3.59,5.77,6.45,10.94,8.77,16.01l0.16-0.07
					c-0.57-6.57-0.69-12.56-0.69-20.18v-20.61h5.98v49.17h-6.45l-15.63-24.93c-3.38-5.51-6.69-11.12-9.15-16.47l-0.21,0.08
					c0.38,6.23,0.46,12.15,0.46,20.28v21.03H3619.08z"/>
				<path class="st0" d="M3677.65,4768.6v49.17h-6.39v-49.17H3677.65z"/>
				<path class="st0" d="M3743.32,4817.78c-1.41-1.42-2.69-2.8-4.59-4.79c-4.28,3.91-8.95,5.59-14.36,5.59
					c-9.54,0-15.12-6.43-15.12-13.79c0-6.71,4.03-11.27,9.59-14.36l0.01-0.23c-2.52-3.19-4.09-6.78-4.09-10.26
					c0-6.02,4.34-12.14,12.5-12.14c6.12,0,10.88,4.05,10.88,10.44c0,5.16-3.03,9.23-10.79,13.11l-0.02,0.25
					c4.17,4.83,8.83,10.16,11.99,13.68c2.27-3.43,3.77-8.18,4.73-14.35h5.82c-1.32,7.73-3.41,13.84-7.08,18.14
					c2.64,2.81,5.18,5.55,8.15,8.7H3743.32z M3735.55,4809.32c-2.92-3.19-8.39-9.22-13.81-15.49c-2.69,1.7-6.35,4.81-6.35,9.98
					c0,5.66,4.13,9.94,10.03,9.94C3729.69,4813.75,3733.21,4811.88,3735.55,4809.32z M3720.6,4779.32c0,3.53,1.66,6.23,3.74,8.85
					c4.99-2.84,8.16-5.46,8.16-9.62c0-3.04-1.7-6.37-5.72-6.37C3722.74,4772.18,3720.6,4775.56,3720.6,4779.32z"/>
				<path class="st0" d="M3788.43,4802.32l-5.08,15.46h-6.58l16.73-49.17h7.63l16.79,49.17h-6.79l-5.27-15.46H3788.43z
					 M3804.58,4797.35l-4.87-14.15c-1.07-3.21-1.81-6.15-2.53-8.97h-0.17c-0.7,2.87-1.47,5.88-2.44,8.89l-4.84,14.23H3804.58z"/>
				<path class="st0" d="M3828.46,4810.03c2.84,1.78,6.98,3.19,11.35,3.19c6.49,0,10.32-3.39,10.32-8.37c0-4.56-2.67-7.25-9.3-9.73
					c-8.03-2.84-13-7.06-13-13.95c0-7.65,6.36-13.33,15.94-13.33c5,0,8.7,1.16,10.85,2.38l-1.77,5.21
					c-1.57-0.93-4.85-2.33-9.29-2.33c-6.75,0-9.3,4-9.3,7.35c0,4.56,2.99,6.82,9.78,9.44c8.34,3.27,12.54,7.27,12.54,14.48
					c0,7.54-5.56,14.18-17.21,14.18c-4.75,0-9.94-1.43-12.56-3.21L3828.46,4810.03z"/>
				<path class="st0" d="M3911.48,4792.69c0,16.88-10.28,25.88-22.82,25.88c-13.04,0-22.1-10.1-22.1-24.95
					c0-15.58,9.65-25.82,22.77-25.82C3902.76,4767.8,3911.48,4778.09,3911.48,4792.69z M3873.28,4793.47
					c0,10.52,5.72,19.94,15.73,19.94c10.09,0,15.75-9.26,15.75-20.43c0-9.79-5.11-20.01-15.67-20.01
					C3878.53,4772.97,3873.28,4782.72,3873.28,4793.47z"/>
				<path class="st0" d="M3958.24,4816.2c-2.29,1.15-7,2.34-13,2.34c-13.85,0-24.24-8.76-24.24-24.91c0-15.43,10.4-25.8,25.67-25.8
					c6.07,0,10,1.28,11.67,2.16l-1.56,5.17c-2.39-1.13-5.8-2.02-9.89-2.02c-11.55,0-19.18,7.38-19.18,20.29
					c0,12.03,6.94,19.71,18.84,19.71c3.91,0,7.84-0.78,10.42-2.02L3958.24,4816.2z"/>
				<path class="st0" d="M3968.65,4814c0-2.69,1.81-4.63,4.35-4.63c2.58,0,4.29,1.91,4.31,4.63c0,2.57-1.71,4.57-4.35,4.57
					C3970.41,4818.58,3968.61,4816.58,3968.65,4814z"/>
			</g>
		</g>
	</g>
</g>
<g>
	<g>
		<g>
			<g>
				<path class="st0" d="M3324.62,5996.74c-0.38-6.83-0.83-15.13-0.78-21.21h-0.2c-1.69,5.71-3.73,11.9-6.19,18.64l-8.68,23.85h-4.8
					l-8.01-23.42c-2.34-6.95-4.25-13.26-5.63-19.08h-0.17c-0.17,6.13-0.49,14.31-0.97,21.69l-1.31,21.11h-6.03l3.42-49.17h8.11
					l8.37,23.8c2.02,6.02,3.68,11.43,4.95,16.57h0.19c1.29-4.98,3.01-10.4,5.2-16.56l8.77-23.8h8.12l3.05,49.17h-6.24
					L3324.62,5996.74z"/>
				<path class="st0" d="M3353.21,6002.88l-5.08,15.46h-6.58l16.73-49.17h7.63l16.79,49.17h-6.79l-5.27-15.46H3353.21z
					 M3369.36,5997.91l-4.87-14.15c-1.07-3.22-1.81-6.15-2.53-8.97h-0.17c-0.7,2.87-1.47,5.88-2.44,8.89l-4.84,14.23H3369.36z"/>
				<path class="st0" d="M3430.45,6016.12c-2.85,1.08-8.49,2.71-15.12,2.71c-7.46,0-13.6-1.89-18.39-6.5
					c-4.24-4.08-6.85-10.6-6.84-18.26c0.02-14.67,10.11-25.4,26.59-25.4c5.68,0,10.19,1.25,12.3,2.25l-1.59,5.18
					c-2.62-1.19-5.9-2.1-10.86-2.1c-11.93,0-19.75,7.43-19.75,19.74c0,12.46,7.48,19.84,18.98,19.84c4.15,0,6.97-0.59,8.44-1.32
					v-14.65h-9.95v-5.08h16.19V6016.12z"/>
				<path class="st0" d="M3444.28,6018.33v-49.17h6.98l15.75,24.85c3.59,5.77,6.45,10.94,8.77,16.01l0.16-0.07
					c-0.57-6.57-0.69-12.56-0.69-20.18v-20.61h5.98v49.17h-6.45l-15.63-24.93c-3.38-5.51-6.69-11.12-9.15-16.47l-0.22,0.08
					c0.38,6.23,0.47,12.15,0.47,20.28v21.03H3444.28z"/>
				<path class="st0" d="M3504.44,6002.88l-5.08,15.46h-6.58l16.73-49.17h7.63l16.79,49.17h-6.79l-5.27-15.46H3504.44z
					 M3520.59,5997.91l-4.87-14.15c-1.07-3.22-1.81-6.15-2.53-8.97h-0.17c-0.7,2.87-1.47,5.88-2.44,8.89l-4.84,14.23H3520.59z"/>
				<path class="st0" d="M3545.29,6018.33v-49.17h6.98l15.75,24.85c3.59,5.77,6.45,10.94,8.77,16.01l0.16-0.07
					c-0.57-6.57-0.69-12.56-0.69-20.18v-20.61h5.98v49.17h-6.45l-15.63-24.93c-3.38-5.51-6.69-11.12-9.15-16.47l-0.22,0.08
					c0.38,6.23,0.47,12.15,0.47,20.28v21.03H3545.29z"/>
				<path class="st0" d="M3603.86,5969.16v49.17h-6.38v-49.17H3603.86z"/>
				<path class="st0" d="M3619.08,6018.33v-49.17h6.98l15.75,24.85c3.59,5.77,6.45,10.94,8.77,16.01l0.16-0.07
					c-0.57-6.57-0.69-12.56-0.69-20.18v-20.61h5.98v49.17h-6.45l-15.63-24.93c-3.38-5.51-6.69-11.12-9.15-16.47l-0.21,0.08
					c0.38,6.23,0.46,12.15,0.46,20.28v21.03H3619.08z"/>
				<path class="st0" d="M3677.65,5969.16v49.17h-6.39v-49.17H3677.65z"/>
				<path class="st0" d="M3743.32,6018.33c-1.41-1.42-2.69-2.8-4.59-4.79c-4.28,3.91-8.95,5.59-14.36,5.59
					c-9.54,0-15.12-6.43-15.12-13.79c0-6.7,4.03-11.27,9.59-14.36l0.01-0.23c-2.52-3.19-4.09-6.78-4.09-10.26
					c0-6.02,4.34-12.14,12.5-12.14c6.12,0,10.88,4.05,10.88,10.44c0,5.16-3.03,9.23-10.79,13.11l-0.02,0.25
					c4.17,4.83,8.83,10.16,11.99,13.68c2.27-3.43,3.77-8.17,4.73-14.35h5.82c-1.32,7.73-3.41,13.84-7.08,18.14
					c2.64,2.82,5.18,5.55,8.15,8.7H3743.32z M3735.55,6009.88c-2.92-3.2-8.39-9.22-13.81-15.49c-2.69,1.7-6.35,4.81-6.35,9.98
					c0,5.66,4.13,9.94,10.03,9.94C3729.69,6014.3,3733.21,6012.43,3735.55,6009.88z M3720.6,5979.87c0,3.53,1.66,6.23,3.74,8.85
					c4.99-2.84,8.16-5.46,8.16-9.62c0-3.04-1.7-6.37-5.72-6.37C3722.74,5972.73,3720.6,5976.12,3720.6,5979.87z"/>
				<path class="st0" d="M3788.43,6002.88l-5.08,15.46h-6.58l16.73-49.17h7.63l16.79,49.17h-6.79l-5.27-15.46H3788.43z
					 M3804.58,5997.91l-4.87-14.15c-1.07-3.22-1.81-6.15-2.53-8.97h-0.17c-0.7,2.87-1.47,5.88-2.44,8.89l-4.84,14.23H3804.58z"/>
				<path class="st0" d="M3828.46,6010.59c2.84,1.78,6.98,3.19,11.35,3.19c6.49,0,10.32-3.39,10.32-8.37c0-4.56-2.67-7.25-9.3-9.73
					c-8.03-2.84-13-7.06-13-13.95c0-7.65,6.36-13.33,15.94-13.33c5,0,8.7,1.16,10.85,2.38l-1.77,5.21
					c-1.57-0.93-4.85-2.33-9.29-2.33c-6.75,0-9.3,4-9.3,7.36c0,4.56,2.99,6.82,9.78,9.44c8.34,3.27,12.54,7.27,12.54,14.48
					c0,7.54-5.56,14.18-17.21,14.18c-4.75,0-9.94-1.43-12.56-3.21L3828.46,6010.59z"/>
				<path class="st0" d="M3911.48,5993.25c0,16.88-10.28,25.88-22.82,25.88c-13.04,0-22.1-10.1-22.1-24.95
					c0-15.58,9.65-25.82,22.77-25.82C3902.76,5968.36,3911.48,5978.65,3911.48,5993.25z M3873.28,5994.03
					c0,10.52,5.72,19.94,15.73,19.94c10.09,0,15.75-9.26,15.75-20.43c0-9.79-5.11-20.01-15.67-20.01
					C3878.53,5973.52,3873.28,5983.27,3873.28,5994.03z"/>
				<path class="st0" d="M3958.24,6016.75c-2.29,1.16-7,2.34-13,2.34c-13.85,0-24.24-8.76-24.24-24.91c0-15.43,10.4-25.8,25.67-25.8
					c6.07,0,10,1.28,11.67,2.16l-1.56,5.17c-2.39-1.14-5.8-2.02-9.89-2.02c-11.55,0-19.18,7.38-19.18,20.29
					c0,12.03,6.94,19.72,18.84,19.72c3.91,0,7.84-0.78,10.42-2.02L3958.24,6016.75z"/>
				<path class="st0" d="M3968.65,6014.56c0-2.69,1.81-4.63,4.35-4.63c2.58,0,4.29,1.91,4.31,4.63c0,2.57-1.71,4.57-4.35,4.57
					C3970.41,6019.13,3968.61,6017.13,3968.65,6014.56z"/>
			</g>
		</g>
	</g>
</g>
<g>
	<g>
		<g>
			<g>
				<path class="st5" d="M2055.62,5996.74c-0.38-6.83-0.83-15.13-0.78-21.21h-0.2c-1.69,5.71-3.73,11.9-6.19,18.64l-8.68,23.85h-4.8
					l-8.01-23.42c-2.34-6.95-4.25-13.26-5.63-19.08h-0.17c-0.17,6.13-0.49,14.31-0.97,21.69l-1.31,21.11h-6.03l3.42-49.17h8.11
					l8.37,23.8c2.02,6.02,3.68,11.43,4.95,16.57h0.19c1.29-4.98,3.01-10.4,5.2-16.56l8.77-23.8h8.12l3.05,49.17h-6.24
					L2055.62,5996.74z"/>
				<path class="st5" d="M2084.22,6002.88l-5.08,15.46h-6.58l16.73-49.17h7.63l16.79,49.17h-6.79l-5.27-15.46H2084.22z
					 M2100.37,5997.91l-4.87-14.15c-1.07-3.22-1.81-6.15-2.53-8.97h-0.17c-0.7,2.87-1.47,5.88-2.44,8.89l-4.84,14.23H2100.37z"/>
				<path class="st5" d="M2161.45,6016.12c-2.85,1.08-8.49,2.71-15.12,2.71c-7.46,0-13.6-1.89-18.39-6.5
					c-4.24-4.08-6.85-10.6-6.84-18.26c0.02-14.67,10.11-25.4,26.59-25.4c5.68,0,10.19,1.25,12.3,2.25l-1.59,5.18
					c-2.62-1.19-5.9-2.1-10.86-2.1c-11.93,0-19.75,7.43-19.75,19.74c0,12.46,7.48,19.84,18.98,19.84c4.15,0,6.97-0.59,8.44-1.32
					v-14.65h-9.95v-5.08h16.19V6016.12z"/>
				<path class="st5" d="M2175.28,6018.33v-49.17h6.98l15.75,24.85c3.59,5.77,6.45,10.94,8.77,16.01l0.16-0.07
					c-0.57-6.57-0.69-12.56-0.69-20.18v-20.61h5.98v49.17h-6.45l-15.63-24.93c-3.38-5.51-6.69-11.12-9.15-16.47l-0.22,0.08
					c0.38,6.23,0.47,12.15,0.47,20.28v21.03H2175.28z"/>
				<path class="st5" d="M2235.45,6002.88l-5.08,15.46h-6.58l16.73-49.17h7.63l16.79,49.17h-6.79l-5.27-15.46H2235.45z
					 M2251.59,5997.91l-4.87-14.15c-1.07-3.22-1.81-6.15-2.53-8.97h-0.17c-0.7,2.87-1.47,5.88-2.44,8.89l-4.84,14.23H2251.59z"/>
				<path class="st5" d="M2276.29,6018.33v-49.17h6.98l15.75,24.85c3.59,5.77,6.45,10.94,8.77,16.01l0.16-0.07
					c-0.57-6.57-0.69-12.56-0.69-20.18v-20.61h5.98v49.17h-6.45l-15.63-24.93c-3.38-5.51-6.69-11.12-9.15-16.47l-0.22,0.08
					c0.38,6.23,0.47,12.15,0.47,20.28v21.03H2276.29z"/>
				<path class="st5" d="M2334.86,5969.16v49.17h-6.38v-49.17H2334.86z"/>
				<path class="st5" d="M2350.08,6018.33v-49.17h6.98l15.75,24.85c3.59,5.77,6.45,10.94,8.77,16.01l0.16-0.07
					c-0.57-6.57-0.69-12.56-0.69-20.18v-20.61h5.98v49.17h-6.45l-15.63-24.93c-3.39-5.51-6.69-11.12-9.15-16.47l-0.21,0.08
					c0.38,6.23,0.46,12.15,0.46,20.28v21.03H2350.08z"/>
				<path class="st5" d="M2408.65,5969.16v49.17h-6.39v-49.17H2408.65z"/>
				<path class="st5" d="M2474.32,6018.33c-1.41-1.42-2.69-2.8-4.59-4.79c-4.28,3.91-8.95,5.59-14.36,5.59
					c-9.54,0-15.12-6.43-15.12-13.79c0-6.7,4.03-11.27,9.59-14.36l0.01-0.23c-2.52-3.19-4.09-6.78-4.09-10.26
					c0-6.02,4.34-12.14,12.5-12.14c6.12,0,10.88,4.05,10.88,10.44c0,5.16-3.03,9.23-10.79,13.11l-0.02,0.25
					c4.17,4.83,8.83,10.16,11.99,13.68c2.27-3.43,3.77-8.17,4.73-14.35h5.82c-1.32,7.73-3.41,13.84-7.08,18.14
					c2.64,2.82,5.18,5.55,8.15,8.7H2474.32z M2466.55,6009.88c-2.92-3.2-8.39-9.22-13.81-15.49c-2.69,1.7-6.35,4.81-6.35,9.98
					c0,5.66,4.13,9.94,10.03,9.94C2460.7,6014.3,2464.21,6012.43,2466.55,6009.88z M2451.6,5979.87c0,3.53,1.66,6.23,3.74,8.85
					c4.99-2.84,8.16-5.46,8.16-9.62c0-3.04-1.7-6.37-5.72-6.37C2453.74,5972.73,2451.6,5976.12,2451.6,5979.87z"/>
				<path class="st5" d="M2519.43,6002.88l-5.08,15.46h-6.58l16.73-49.17h7.63l16.79,49.17h-6.79l-5.27-15.46H2519.43z
					 M2535.58,5997.91l-4.87-14.15c-1.07-3.22-1.81-6.15-2.53-8.97h-0.17c-0.7,2.87-1.47,5.88-2.44,8.89l-4.84,14.23H2535.58z"/>
				<path class="st5" d="M2559.46,6010.59c2.84,1.78,6.98,3.19,11.35,3.19c6.49,0,10.32-3.39,10.32-8.37c0-4.56-2.67-7.25-9.3-9.73
					c-8.03-2.84-13-7.06-13-13.95c0-7.65,6.36-13.33,15.94-13.33c5,0,8.7,1.16,10.85,2.38l-1.77,5.21
					c-1.57-0.93-4.85-2.33-9.29-2.33c-6.75,0-9.3,4-9.3,7.36c0,4.56,2.99,6.82,9.78,9.44c8.34,3.27,12.54,7.27,12.54,14.48
					c0,7.54-5.56,14.18-17.21,14.18c-4.75,0-9.94-1.43-12.56-3.21L2559.46,6010.59z"/>
				<path class="st5" d="M2642.48,5993.25c0,16.88-10.28,25.88-22.82,25.88c-13.04,0-22.1-10.1-22.1-24.95
					c0-15.58,9.65-25.82,22.77-25.82C2633.76,5968.36,2642.48,5978.65,2642.48,5993.25z M2604.28,5994.03
					c0,10.52,5.72,19.94,15.73,19.94c10.09,0,15.75-9.26,15.75-20.43c0-9.79-5.11-20.01-15.67-20.01
					C2609.53,5973.52,2604.28,5983.27,2604.28,5994.03z"/>
				<path class="st5" d="M2689.25,6016.75c-2.29,1.16-7,2.34-13,2.34c-13.85,0-24.24-8.76-24.24-24.91c0-15.43,10.4-25.8,25.67-25.8
					c6.07,0,10,1.28,11.67,2.16l-1.56,5.17c-2.39-1.14-5.8-2.02-9.89-2.02c-11.55,0-19.18,7.38-19.18,20.29
					c0,12.03,6.94,19.72,18.84,19.72c3.91,0,7.84-0.78,10.42-2.02L2689.25,6016.75z"/>
				<path class="st5" d="M2699.66,6014.56c0-2.69,1.81-4.63,4.35-4.63c2.58,0,4.29,1.91,4.31,4.63c0,2.57-1.71,4.57-4.35,4.57
					C2701.41,6019.13,2699.61,6017.13,2699.66,6014.56z"/>
			</g>
		</g>
	</g>
</g>
<g>
	<g>
		<g>
			<g>
				<path class="st5" d="M2060.32,4846.56l-1.91,5.83h-2.48l6.31-18.55h2.88l6.34,18.55h-2.56l-1.98-5.83H2060.32z M2066.41,4844.69
					l-1.84-5.34c-0.4-1.22-0.68-2.32-0.95-3.38h-0.06c-0.27,1.08-0.56,2.22-0.92,3.35l-1.83,5.37H2066.41z"/>
				<path class="st5" d="M2079.28,4849.47c1.07,0.67,2.63,1.2,4.28,1.2c2.45,0,3.89-1.28,3.89-3.16c0-1.72-1.01-2.73-3.51-3.67
					c-3.03-1.07-4.9-2.67-4.9-5.26c0-2.89,2.4-5.03,6.01-5.03c1.89,0,3.28,0.44,4.09,0.9l-0.67,1.96c-0.59-0.35-1.83-0.88-3.5-0.88
					c-2.55,0-3.51,1.51-3.51,2.77c0,1.72,1.13,2.57,3.69,3.56c3.15,1.23,4.73,2.74,4.73,5.46c0,2.84-2.1,5.35-6.49,5.35
					c-1.79,0-3.75-0.54-4.74-1.21L2079.28,4849.47z"/>
				<path class="st5" d="M2101,4833.84v10.99c0,4.14,1.84,5.89,4.34,5.89c2.73,0,4.51-1.82,4.51-5.89v-10.99h2.41v10.82
					c0,5.7-3,8.03-7.02,8.03c-3.78,0-6.64-2.16-6.64-7.92v-10.93H2101z"/>
				<path class="st5" d="M2121.85,4852.39v-18.55h2.63l5.94,9.37c1.35,2.18,2.43,4.12,3.31,6.04l0.06-0.03
					c-0.22-2.48-0.26-4.74-0.26-7.61v-7.77h2.26v18.55h-2.43l-5.9-9.4c-1.28-2.08-2.52-4.19-3.45-6.21l-0.08,0.03
					c0.14,2.35,0.17,4.59,0.17,7.65v7.93H2121.85z"/>
				<path class="st5" d="M2148.94,4835.87h-5.65v-2.03h13.73v2.03h-5.68v16.52h-2.41V4835.87z"/>
				<path class="st5" d="M2179.64,4842.93c0,6.37-3.88,9.76-8.61,9.76c-4.92,0-8.34-3.81-8.34-9.42c0-5.87,3.64-9.73,8.59-9.73
					C2176.35,4833.55,2179.64,4837.42,2179.64,4842.93z M2165.23,4843.23c0,3.97,2.16,7.52,5.93,7.52c3.8,0,5.94-3.49,5.94-7.71
					c0-3.69-1.92-7.54-5.91-7.54C2167.21,4835.49,2165.23,4839.17,2165.23,4843.23z"/>
				<path class="st5" d="M2187.87,4849.47c1.07,0.67,2.63,1.2,4.28,1.2c2.45,0,3.89-1.28,3.89-3.16c0-1.72-1.01-2.73-3.51-3.67
					c-3.03-1.07-4.9-2.67-4.9-5.26c0-2.89,2.4-5.03,6.01-5.03c1.89,0,3.28,0.44,4.09,0.9l-0.67,1.96c-0.59-0.35-1.83-0.88-3.5-0.88
					c-2.55,0-3.51,1.51-3.51,2.77c0,1.72,1.13,2.57,3.69,3.56c3.15,1.23,4.73,2.74,4.73,5.46c0,2.84-2.1,5.35-6.49,5.35
					c-1.79,0-3.75-0.54-4.74-1.21L2187.87,4849.47z"/>
				<path class="st5" d="M2218.47,4834.07c1.16-0.21,2.67-0.37,4.61-0.37c2.35,0,4.09,0.54,5.2,1.54c1.01,0.89,1.63,2.23,1.63,3.89
					c0,1.68-0.5,3-1.44,3.97c-1.28,1.36-3.33,2.03-5.67,2.03c-0.73,0-1.39-0.03-1.94-0.17v7.44h-2.39V4834.07z M2220.86,4843.01
					c0.53,0.15,1.2,0.21,1.99,0.21c2.9,0,4.66-1.43,4.66-3.96c0-2.46-1.75-3.66-4.38-3.66c-1.05,0-1.84,0.1-2.27,0.19V4843.01z"/>
				<path class="st5" d="M2240.95,4833.84v10.99c0,4.14,1.84,5.89,4.34,5.89c2.73,0,4.51-1.82,4.51-5.89v-10.99h2.41v10.82
					c0,5.7-3,8.03-7.02,8.03c-3.78,0-6.64-2.16-6.64-7.92v-10.93H2240.95z M2249.48,4829.64l-3.51,3.21H2244l2.54-3.21H2249.48z"/>
				<path class="st5" d="M2261.8,4834.1c1.06-0.23,2.71-0.4,4.37-0.4c2.4,0,3.94,0.41,5.09,1.35c0.96,0.73,1.55,1.83,1.55,3.28
					c0,1.79-1.2,3.37-3.13,4.06v0.08c1.77,0.42,3.83,1.88,3.83,4.65c0,1.58-0.63,2.81-1.59,3.69c-1.28,1.2-3.36,1.74-6.4,1.74
					c-1.66,0-2.92-0.11-3.72-0.21V4834.1z M2264.19,4841.7h2.2c2.5,0,3.99-1.33,3.99-3.13c0-2.15-1.63-3.02-4.05-3.02
					c-1.11,0-1.75,0.08-2.14,0.17V4841.7z M2264.19,4850.57c0.49,0.1,1.15,0.13,2.02,0.13c2.49,0,4.77-0.91,4.77-3.61
					c0-2.52-2.19-3.58-4.8-3.59h-2V4850.57z"/>
				<path class="st5" d="M2282.16,4833.84h2.41v16.53h7.93v2.02h-10.34V4833.84z"/>
				<path class="st5" d="M2303,4833.84v18.55h-2.41v-18.55H2303z"/>
				<path class="st5" d="M2325.57,4851.8c-0.86,0.43-2.64,0.88-4.9,0.88c-5.23,0-9.14-3.31-9.14-9.4c0-5.82,3.93-9.73,9.68-9.73
					c2.29,0,3.77,0.48,4.4,0.82l-0.59,1.95c-0.9-0.43-2.19-0.77-3.73-0.77c-4.35,0-7.23,2.78-7.23,7.65c0,4.54,2.61,7.44,7.1,7.44
					c1.47,0,2.96-0.29,3.93-0.76L2325.57,4851.8z"/>
				<path class="st5" d="M2349.3,4842.93c0,6.37-3.88,9.76-8.61,9.76c-4.92,0-8.34-3.81-8.34-9.42c0-5.87,3.64-9.73,8.59-9.73
					C2346.01,4833.55,2349.3,4837.42,2349.3,4842.93z M2334.89,4843.23c0,3.97,2.16,7.52,5.93,7.52c3.8,0,5.94-3.49,5.94-7.71
					c0-3.69-1.92-7.54-5.91-7.54C2336.87,4835.49,2334.89,4839.17,2334.89,4843.23z"/>
				<path class="st5" d="M2357.53,4849.47c1.07,0.67,2.63,1.2,4.28,1.2c2.45,0,3.89-1.28,3.89-3.16c0-1.72-1.01-2.73-3.51-3.67
					c-3.03-1.07-4.9-2.67-4.9-5.26c0-2.89,2.4-5.03,6.01-5.03c1.89,0,3.28,0.44,4.09,0.9l-0.67,1.96c-0.59-0.35-1.83-0.88-3.5-0.88
					c-2.55,0-3.51,1.51-3.51,2.77c0,1.72,1.13,2.57,3.69,3.56c3.15,1.23,4.73,2.74,4.73,5.46c0,2.84-2.1,5.35-6.49,5.35
					c-1.79,0-3.75-0.54-4.74-1.21L2357.53,4849.47z"/>
				<path class="st5" d="M2391.02,4852.39v-7.86l-5.88-10.69h2.74l2.61,5.13c0.71,1.41,1.27,2.53,1.84,3.83h0.06
					c0.51-1.22,1.14-2.43,1.86-3.84l2.67-5.11h2.71l-6.21,10.65v7.9H2391.02z"/>
				<path class="st5" d="M2431.44,4851.8c-0.86,0.43-2.64,0.88-4.9,0.88c-5.23,0-9.14-3.31-9.14-9.4c0-5.82,3.93-9.73,9.68-9.73
					c2.29,0,3.77,0.48,4.4,0.82l-0.59,1.95c-0.9-0.43-2.19-0.77-3.73-0.77c-4.35,0-7.23,2.78-7.23,7.65c0,4.54,2.61,7.44,7.1,7.44
					c1.47,0,2.96-0.29,3.93-0.76L2431.44,4851.8z"/>
				<path class="st5" d="M2455.16,4842.93c0,6.37-3.88,9.76-8.61,9.76c-4.92,0-8.34-3.81-8.34-9.42c0-5.87,3.64-9.73,8.59-9.73
					C2451.87,4833.55,2455.16,4837.42,2455.16,4842.93z M2440.75,4843.23c0,3.97,2.16,7.52,5.93,7.52c3.8,0,5.94-3.49,5.94-7.71
					c0-3.69-1.92-7.54-5.91-7.54C2442.74,4835.49,2440.75,4839.17,2440.75,4843.23z"/>
				<path class="st5" d="M2479.36,4844.25c-0.15-2.58-0.32-5.71-0.3-8h-0.07c-0.64,2.15-1.41,4.49-2.33,7.03l-3.28,9h-1.81
					l-3.02-8.83c-0.88-2.62-1.6-5-2.12-7.2h-0.06c-0.06,2.31-0.18,5.4-0.36,8.18l-0.49,7.96h-2.27l1.29-18.55h3.06l3.16,8.98
					c0.76,2.27,1.39,4.31,1.87,6.25h0.07c0.49-1.88,1.14-3.92,1.96-6.25l3.31-8.98h3.06l1.15,18.55h-2.35L2479.36,4844.25z"/>
				<path class="st5" d="M2493.67,4833.84v10.99c0,4.14,1.84,5.89,4.34,5.89c2.73,0,4.51-1.82,4.51-5.89v-10.99h2.41v10.82
					c0,5.7-3,8.03-7.02,8.03c-3.78,0-6.64-2.16-6.64-7.92v-10.93H2493.67z"/>
				<path class="st5" d="M2514.52,4852.39v-18.55h2.63l5.94,9.37c1.35,2.18,2.43,4.12,3.31,6.04l0.06-0.03
					c-0.22-2.48-0.26-4.74-0.26-7.61v-7.77h2.26v18.55h-2.43l-5.9-9.4c-1.28-2.08-2.52-4.19-3.45-6.21l-0.08,0.03
					c0.14,2.35,0.17,4.59,0.17,7.65v7.93H2514.52z"/>
				<path class="st5" d="M2540.48,4833.84v18.55h-2.41v-18.55H2540.48z"/>
				<path class="st5" d="M2563.05,4851.8c-0.86,0.43-2.64,0.88-4.9,0.88c-5.23,0-9.14-3.31-9.14-9.4c0-5.82,3.93-9.73,9.68-9.73
					c2.29,0,3.77,0.48,4.4,0.82l-0.59,1.95c-0.9-0.43-2.19-0.77-3.73-0.77c-4.35,0-7.23,2.78-7.23,7.65c0,4.54,2.61,7.44,7.1,7.44
					c1.47,0,2.96-0.29,3.93-0.76L2563.05,4851.8z"/>
				<path class="st5" d="M2574.61,4846.56l-1.92,5.83h-2.48l6.31-18.55h2.88l6.34,18.55h-2.56l-1.98-5.83H2574.61z M2580.7,4844.69
					l-1.84-5.34c-0.4-1.22-0.68-2.32-0.95-3.38h-0.06c-0.27,1.08-0.56,2.22-0.92,3.35l-1.83,5.37H2580.7z"/>
				<path class="st5" d="M2606.44,4851.8c-0.86,0.43-2.64,0.88-4.9,0.88c-5.23,0-9.14-3.31-9.14-9.4c0-5.82,3.93-9.73,9.68-9.73
					c2.29,0,3.77,0.48,4.4,0.82l-0.59,1.95c-0.9-0.43-2.19-0.77-3.73-0.77c-4.35,0-7.23,2.78-7.23,7.65c0,4.54,2.61,7.44,7.1,7.44
					c1.47,0,2.96-0.29,3.93-0.76L2606.44,4851.8z"/>
				<path class="st5" d="M2617.29,4833.84v18.55h-2.41v-18.55H2617.29z"/>
				<path class="st5" d="M2642.77,4842.93c0,6.37-3.88,9.76-8.61,9.76c-4.92,0-8.34-3.81-8.34-9.42c0-5.87,3.64-9.73,8.59-9.73
					C2639.47,4833.55,2642.77,4837.42,2642.77,4842.93z M2628.35,4843.23c0,3.97,2.16,7.52,5.93,7.52c3.8,0,5.94-3.49,5.94-7.71
					c0-3.69-1.92-7.54-5.91-7.54C2630.34,4835.49,2628.35,4839.17,2628.35,4843.23z M2638.31,4829.58l-3.51,3.21h-1.96l2.54-3.21
					H2638.31z"/>
				<path class="st5" d="M2651.31,4852.39v-18.55h2.63l5.94,9.37c1.35,2.18,2.43,4.12,3.31,6.04l0.06-0.03
					c-0.22-2.48-0.26-4.74-0.26-7.61v-7.77h2.26v18.55h-2.43l-5.9-9.4c-1.28-2.08-2.52-4.19-3.45-6.21l-0.08,0.03
					c0.14,2.35,0.17,4.59,0.17,7.65v7.93H2651.31z"/>
			</g>
		</g>
		<g>
			<g>
				<path class="st5" d="M2055.62,4796.18c-0.38-6.83-0.83-15.13-0.78-21.21h-0.2c-1.69,5.71-3.73,11.9-6.19,18.64l-8.68,23.85h-4.8
					l-8.01-23.42c-2.34-6.95-4.25-13.26-5.63-19.08h-0.17c-0.17,6.13-0.49,14.31-0.97,21.69l-1.31,21.11h-6.03l3.42-49.17h8.11
					l8.37,23.8c2.02,6.02,3.68,11.44,4.95,16.57h0.19c1.29-4.98,3.01-10.4,5.2-16.56l8.77-23.8h8.12l3.05,49.17h-6.24
					L2055.62,4796.18z"/>
				<path class="st5" d="M2084.22,4802.32l-5.08,15.46h-6.58l16.73-49.17h7.63l16.79,49.17h-6.79l-5.27-15.46H2084.22z
					 M2100.37,4797.35l-4.87-14.15c-1.07-3.21-1.81-6.15-2.53-8.97h-0.17c-0.7,2.87-1.47,5.88-2.44,8.89l-4.84,14.23H2100.37z"/>
				<path class="st5" d="M2161.45,4815.56c-2.85,1.08-8.49,2.71-15.12,2.71c-7.46,0-13.6-1.89-18.39-6.5
					c-4.24-4.08-6.85-10.6-6.84-18.26c0.02-14.67,10.11-25.4,26.59-25.4c5.68,0,10.19,1.25,12.3,2.25l-1.59,5.18
					c-2.62-1.19-5.9-2.1-10.86-2.1c-11.93,0-19.75,7.43-19.75,19.74c0,12.46,7.48,19.84,18.98,19.84c4.15,0,6.97-0.59,8.44-1.32
					v-14.65h-9.95v-5.08h16.19V4815.56z"/>
				<path class="st5" d="M2175.28,4817.78v-49.17h6.98l15.75,24.85c3.59,5.77,6.45,10.94,8.77,16.01l0.16-0.07
					c-0.57-6.57-0.69-12.56-0.69-20.18v-20.61h5.98v49.17h-6.45l-15.63-24.93c-3.38-5.51-6.69-11.12-9.15-16.47l-0.22,0.08
					c0.38,6.23,0.47,12.15,0.47,20.28v21.03H2175.28z"/>
				<path class="st5" d="M2235.45,4802.32l-5.08,15.46h-6.58l16.73-49.17h7.63l16.79,49.17h-6.79l-5.27-15.46H2235.45z
					 M2251.59,4797.35l-4.87-14.15c-1.07-3.21-1.81-6.15-2.53-8.97h-0.17c-0.7,2.87-1.47,5.88-2.44,8.89l-4.84,14.23H2251.59z"/>
				<path class="st5" d="M2276.29,4817.78v-49.17h6.98l15.75,24.85c3.59,5.77,6.45,10.94,8.77,16.01l0.16-0.07
					c-0.57-6.57-0.69-12.56-0.69-20.18v-20.61h5.98v49.17h-6.45l-15.63-24.93c-3.38-5.51-6.69-11.12-9.15-16.47l-0.22,0.08
					c0.38,6.23,0.47,12.15,0.47,20.28v21.03H2276.29z"/>
				<path class="st5" d="M2334.86,4768.6v49.17h-6.38v-49.17H2334.86z"/>
				<path class="st5" d="M2350.08,4817.78v-49.17h6.98l15.75,24.85c3.59,5.77,6.45,10.94,8.77,16.01l0.16-0.07
					c-0.57-6.57-0.69-12.56-0.69-20.18v-20.61h5.98v49.17h-6.45l-15.63-24.93c-3.39-5.51-6.69-11.12-9.15-16.47l-0.21,0.08
					c0.38,6.23,0.46,12.15,0.46,20.28v21.03H2350.08z"/>
				<path class="st5" d="M2408.65,4768.6v49.17h-6.39v-49.17H2408.65z"/>
				<path class="st5" d="M2474.32,4817.78c-1.41-1.42-2.69-2.8-4.59-4.79c-4.28,3.91-8.95,5.59-14.36,5.59
					c-9.54,0-15.12-6.43-15.12-13.79c0-6.71,4.03-11.27,9.59-14.36l0.01-0.23c-2.52-3.19-4.09-6.78-4.09-10.26
					c0-6.02,4.34-12.14,12.5-12.14c6.12,0,10.88,4.05,10.88,10.44c0,5.16-3.03,9.23-10.79,13.11l-0.02,0.25
					c4.17,4.83,8.83,10.16,11.99,13.68c2.27-3.43,3.77-8.18,4.73-14.35h5.82c-1.32,7.73-3.41,13.84-7.08,18.14
					c2.64,2.81,5.18,5.55,8.15,8.7H2474.32z M2466.55,4809.32c-2.92-3.19-8.39-9.22-13.81-15.49c-2.69,1.7-6.35,4.81-6.35,9.98
					c0,5.66,4.13,9.94,10.03,9.94C2460.7,4813.75,2464.21,4811.88,2466.55,4809.32z M2451.6,4779.32c0,3.53,1.66,6.23,3.74,8.85
					c4.99-2.84,8.16-5.46,8.16-9.62c0-3.04-1.7-6.37-5.72-6.37C2453.74,4772.18,2451.6,4775.56,2451.6,4779.32z"/>
				<path class="st5" d="M2519.43,4802.32l-5.08,15.46h-6.58l16.73-49.17h7.63l16.79,49.17h-6.79l-5.27-15.46H2519.43z
					 M2535.58,4797.35l-4.87-14.15c-1.07-3.21-1.81-6.15-2.53-8.97h-0.17c-0.7,2.87-1.47,5.88-2.44,8.89l-4.84,14.23H2535.58z"/>
				<path class="st5" d="M2559.46,4810.03c2.84,1.78,6.98,3.19,11.35,3.19c6.49,0,10.32-3.39,10.32-8.37c0-4.56-2.67-7.25-9.3-9.73
					c-8.03-2.84-13-7.06-13-13.95c0-7.65,6.36-13.33,15.94-13.33c5,0,8.7,1.16,10.85,2.38l-1.77,5.21
					c-1.57-0.93-4.85-2.33-9.29-2.33c-6.75,0-9.3,4-9.3,7.35c0,4.56,2.99,6.82,9.78,9.44c8.34,3.27,12.54,7.27,12.54,14.48
					c0,7.54-5.56,14.18-17.21,14.18c-4.75,0-9.94-1.43-12.56-3.21L2559.46,4810.03z"/>
				<path class="st5" d="M2642.48,4792.69c0,16.88-10.28,25.88-22.82,25.88c-13.04,0-22.1-10.1-22.1-24.95
					c0-15.58,9.65-25.82,22.77-25.82C2633.76,4767.8,2642.48,4778.09,2642.48,4792.69z M2604.28,4793.47
					c0,10.52,5.72,19.94,15.73,19.94c10.09,0,15.75-9.26,15.75-20.43c0-9.79-5.11-20.01-15.67-20.01
					C2609.53,4772.97,2604.28,4782.72,2604.28,4793.47z"/>
				<path class="st5" d="M2689.25,4816.2c-2.29,1.15-7,2.34-13,2.34c-13.85,0-24.24-8.76-24.24-24.91c0-15.43,10.4-25.8,25.67-25.8
					c6.07,0,10,1.28,11.67,2.16l-1.56,5.17c-2.39-1.13-5.8-2.02-9.89-2.02c-11.55,0-19.18,7.38-19.18,20.29
					c0,12.03,6.94,19.71,18.84,19.71c3.91,0,7.84-0.78,10.42-2.02L2689.25,4816.2z"/>
				<path class="st5" d="M2699.66,4814c0-2.69,1.81-4.63,4.35-4.63c2.58,0,4.29,1.91,4.31,4.63c0,2.57-1.71,4.57-4.35,4.57
					C2701.41,4818.58,2699.61,4816.58,2699.66,4814z"/>
			</g>
		</g>
	</g>
</g>
<g>
	<g>
		<path class="st6" d="M45.84,230.19l-1.49,4.54h-1.94l4.91-14.45h2.24l4.94,14.45h-2l-1.55-4.54H45.84z M50.59,228.73l-1.43-4.16
			c-0.31-0.95-0.53-1.81-0.74-2.64h-0.05c-0.21,0.84-0.43,1.73-0.72,2.61l-1.42,4.18H50.59z"/>
		<path class="st6" d="M60.62,232.46c0.83,0.52,2.05,0.94,3.34,0.94c1.91,0,3.03-1,3.03-2.46c0-1.34-0.78-2.13-2.74-2.86
			c-2.36-0.83-3.82-2.08-3.82-4.1c0-2.25,1.87-3.92,4.68-3.92c1.47,0,2.56,0.34,3.19,0.7l-0.52,1.53c-0.46-0.27-1.43-0.69-2.73-0.69
			c-1.99,0-2.74,1.18-2.74,2.16c0,1.34,0.88,2,2.87,2.77c2.45,0.96,3.69,2.14,3.69,4.26c0,2.22-1.63,4.17-5.06,4.17
			c-1.4,0-2.92-0.42-3.69-0.94L60.62,232.46z"/>
		<path class="st6" d="M77.54,220.28v8.57c0,3.22,1.43,4.59,3.38,4.59c2.13,0,3.52-1.42,3.52-4.59v-8.57h1.88v8.44
			c0,4.44-2.34,6.25-5.47,6.25c-2.95,0-5.18-1.68-5.18-6.18v-8.51H77.54z"/>
		<path class="st6" d="M93.79,234.74v-14.45h2.05l4.63,7.31c1.05,1.7,1.89,3.21,2.58,4.71l0.05-0.02c-0.17-1.93-0.2-3.69-0.2-5.93
			v-6.06h1.76v14.45h-1.89l-4.6-7.33c-0.99-1.62-1.97-3.27-2.69-4.84l-0.06,0.02c0.11,1.83,0.14,3.58,0.14,5.96v6.18H93.79z"/>
		<path class="st6" d="M114.91,221.86h-4.4v-1.58h10.7v1.58h-4.43v12.87h-1.88V221.86z"/>
		<path class="st6" d="M138.83,227.36c0,4.96-3.02,7.61-6.71,7.61c-3.83,0-6.5-2.97-6.5-7.34c0-4.58,2.84-7.59,6.69-7.59
			C136.27,220.05,138.83,223.07,138.83,227.36z M127.6,227.59c0,3.09,1.68,5.86,4.62,5.86c2.97,0,4.63-2.72,4.63-6.01
			c0-2.88-1.5-5.88-4.61-5.88C129.15,221.56,127.6,224.43,127.6,227.59z"/>
		<path class="st6" d="M145.24,232.46c0.83,0.52,2.05,0.94,3.34,0.94c1.91,0,3.03-1,3.03-2.46c0-1.34-0.78-2.13-2.74-2.86
			c-2.36-0.83-3.82-2.08-3.82-4.1c0-2.25,1.87-3.92,4.68-3.92c1.47,0,2.56,0.34,3.19,0.7l-0.52,1.53c-0.46-0.27-1.43-0.69-2.73-0.69
			c-1.99,0-2.74,1.18-2.74,2.16c0,1.34,0.88,2,2.87,2.77c2.45,0.96,3.69,2.14,3.69,4.26c0,2.22-1.63,4.17-5.06,4.17
			c-1.4,0-2.92-0.42-3.69-0.94L145.24,232.46z"/>
		<path class="st6" d="M169.09,220.46c0.9-0.16,2.08-0.29,3.59-0.29c1.83,0,3.19,0.42,4.05,1.2c0.78,0.69,1.27,1.74,1.27,3.03
			c0,1.31-0.39,2.34-1.12,3.09c-0.99,1.06-2.59,1.58-4.42,1.58c-0.57,0-1.08-0.02-1.51-0.14v5.8h-1.86V220.46z M170.96,227.42
			c0.42,0.12,0.93,0.16,1.55,0.16c2.26,0,3.63-1.11,3.63-3.08c0-1.91-1.37-2.85-3.42-2.85c-0.82,0-1.44,0.08-1.77,0.15V227.42z"/>
		<path class="st6" d="M186.61,220.28v8.57c0,3.22,1.43,4.59,3.38,4.59c2.13,0,3.52-1.42,3.52-4.59v-8.57h1.88v8.44
			c0,4.44-2.34,6.25-5.47,6.25c-2.95,0-5.18-1.68-5.18-6.18v-8.51H186.61z M193.26,217.01l-2.73,2.5h-1.53l1.98-2.5H193.26z"/>
		<path class="st6" d="M202.86,220.48c0.82-0.18,2.12-0.31,3.41-0.31c1.87,0,3.07,0.32,3.97,1.05c0.75,0.57,1.21,1.43,1.21,2.56
			c0,1.39-0.93,2.63-2.44,3.16V227c1.38,0.33,2.98,1.46,2.98,3.63c0,1.23-0.49,2.19-1.24,2.88c-0.99,0.93-2.62,1.36-4.99,1.36
			c-1.29,0-2.27-0.09-2.9-0.16V220.48z M204.73,226.4h1.71c1.95,0,3.11-1.04,3.11-2.44c0-1.68-1.27-2.35-3.16-2.35
			c-0.87,0-1.36,0.06-1.67,0.14V226.4z M204.73,233.31c0.38,0.08,0.9,0.1,1.57,0.1c1.94,0,3.72-0.71,3.72-2.81
			c0-1.97-1.7-2.79-3.74-2.8h-1.56V233.31z"/>
		<path class="st6" d="M218.73,220.28h1.88v12.88h6.18v1.57h-8.06V220.28z"/>
		<path class="st6" d="M234.97,220.28v14.45h-1.88v-14.45H234.97z"/>
		<path class="st6" d="M252.56,234.27c-0.67,0.34-2.06,0.69-3.82,0.69c-4.07,0-7.13-2.58-7.13-7.32c0-4.54,3.06-7.58,7.55-7.58
			c1.78,0,2.94,0.38,3.43,0.64l-0.46,1.52c-0.7-0.33-1.71-0.6-2.91-0.6c-3.39,0-5.64,2.17-5.64,5.97c0,3.54,2.04,5.8,5.54,5.8
			c1.15,0,2.3-0.23,3.06-0.59L252.56,234.27z"/>
		<path class="st6" d="M271.06,227.36c0,4.96-3.02,7.61-6.71,7.61c-3.83,0-6.5-2.97-6.5-7.34c0-4.58,2.84-7.59,6.69-7.59
			C268.49,220.05,271.06,223.07,271.06,227.36z M259.83,227.59c0,3.09,1.68,5.86,4.62,5.86c2.97,0,4.63-2.72,4.63-6.01
			c0-2.88-1.5-5.88-4.61-5.88C261.37,221.56,259.83,224.43,259.83,227.59z"/>
		<path class="st6" d="M277.47,232.46c0.83,0.52,2.05,0.94,3.34,0.94c1.91,0,3.03-1,3.03-2.46c0-1.34-0.78-2.13-2.74-2.86
			c-2.36-0.83-3.82-2.08-3.82-4.1c0-2.25,1.87-3.92,4.68-3.92c1.47,0,2.56,0.34,3.19,0.7l-0.52,1.53c-0.46-0.27-1.43-0.69-2.73-0.69
			c-1.99,0-2.74,1.18-2.74,2.16c0,1.34,0.88,2,2.87,2.77c2.45,0.96,3.69,2.14,3.69,4.26c0,2.22-1.63,4.17-5.06,4.17
			c-1.4,0-2.92-0.42-3.69-0.94L277.47,232.46z"/>
		<path class="st6" d="M303.56,234.74v-6.13l-4.58-8.33h2.14l2.03,3.99c0.55,1.1,0.99,1.97,1.44,2.98h0.04
			c0.4-0.95,0.89-1.89,1.45-2.99l2.08-3.98h2.12l-4.84,8.3v6.16H303.56z"/>
		<path class="st6" d="M335.07,234.27c-0.67,0.34-2.06,0.69-3.82,0.69c-4.07,0-7.13-2.58-7.13-7.32c0-4.54,3.06-7.58,7.55-7.58
			c1.78,0,2.94,0.38,3.43,0.64l-0.46,1.52c-0.7-0.33-1.71-0.6-2.91-0.6c-3.39,0-5.64,2.17-5.64,5.97c0,3.54,2.04,5.8,5.54,5.8
			c1.15,0,2.3-0.23,3.06-0.59L335.07,234.27z"/>
		<path class="st6" d="M353.56,227.36c0,4.96-3.02,7.61-6.71,7.61c-3.83,0-6.5-2.97-6.5-7.34c0-4.58,2.84-7.59,6.69-7.59
			C350.99,220.05,353.56,223.07,353.56,227.36z M342.33,227.59c0,3.09,1.68,5.86,4.62,5.86c2.97,0,4.63-2.72,4.63-6.01
			c0-2.88-1.5-5.88-4.61-5.88C343.87,221.56,342.33,224.43,342.33,227.59z"/>
		<path class="st6" d="M372.41,228.39c-0.11-2.01-0.25-4.45-0.23-6.24h-0.06c-0.5,1.68-1.1,3.5-1.82,5.48l-2.55,7.01h-1.41
			l-2.35-6.88c-0.69-2.04-1.25-3.9-1.66-5.61h-0.05c-0.05,1.8-0.14,4.21-0.28,6.38l-0.38,6.2h-1.77l1-14.45h2.39l2.46,7
			c0.59,1.77,1.08,3.36,1.45,4.87h0.06c0.38-1.46,0.88-3.06,1.53-4.87l2.58-7h2.39l0.9,14.45h-1.84L372.41,228.39z"/>
		<path class="st6" d="M383.57,220.28v8.57c0,3.22,1.43,4.59,3.38,4.59c2.13,0,3.52-1.42,3.52-4.59v-8.57h1.88v8.44
			c0,4.44-2.34,6.25-5.47,6.25c-2.95,0-5.18-1.68-5.18-6.18v-8.51H383.57z"/>
		<path class="st6" d="M399.82,234.74v-14.45h2.05l4.63,7.31c1.05,1.7,1.89,3.21,2.58,4.71l0.05-0.02c-0.17-1.93-0.2-3.69-0.2-5.93
			v-6.06h1.76v14.45h-1.89l-4.6-7.33c-0.99-1.62-1.97-3.27-2.69-4.84l-0.06,0.02c0.11,1.83,0.14,3.58,0.14,5.96v6.18H399.82z"/>
		<path class="st6" d="M420.05,220.28v14.45h-1.88v-14.45H420.05z"/>
		<path class="st6" d="M437.64,234.27c-0.67,0.34-2.06,0.69-3.82,0.69c-4.07,0-7.13-2.58-7.13-7.32c0-4.54,3.06-7.58,7.55-7.58
			c1.78,0,2.94,0.38,3.43,0.64l-0.46,1.52c-0.7-0.33-1.71-0.6-2.91-0.6c-3.39,0-5.64,2.17-5.64,5.97c0,3.54,2.04,5.8,5.54,5.8
			c1.15,0,2.3-0.23,3.06-0.59L437.64,234.27z"/>
		<path class="st6" d="M446.65,230.19l-1.5,4.54h-1.93l4.91-14.45h2.24l4.94,14.45h-2l-1.55-4.54H446.65z M451.4,228.73l-1.43-4.16
			c-0.31-0.95-0.53-1.81-0.74-2.64h-0.05c-0.21,0.84-0.43,1.73-0.72,2.61l-1.42,4.18H451.4z"/>
		<path class="st6" d="M471.45,234.27c-0.67,0.34-2.06,0.69-3.82,0.69c-4.07,0-7.13-2.58-7.13-7.32c0-4.54,3.06-7.58,7.55-7.58
			c1.78,0,2.94,0.38,3.43,0.64l-0.46,1.52c-0.7-0.33-1.71-0.6-2.91-0.6c-3.39,0-5.64,2.17-5.64,5.97c0,3.54,2.04,5.8,5.54,5.8
			c1.15,0,2.3-0.23,3.06-0.59L471.45,234.27z"/>
		<path class="st6" d="M479.91,220.28v14.45h-1.88v-14.45H479.91z"/>
		<path class="st6" d="M499.76,227.36c0,4.96-3.02,7.61-6.71,7.61c-3.83,0-6.5-2.97-6.5-7.34c0-4.58,2.84-7.59,6.69-7.59
			C497.2,220.05,499.76,223.07,499.76,227.36z M488.53,227.59c0,3.09,1.68,5.86,4.62,5.86c2.97,0,4.63-2.72,4.63-6.01
			c0-2.88-1.5-5.88-4.61-5.88C490.08,221.56,488.53,224.43,488.53,227.59z M496.29,216.95l-2.73,2.5h-1.53l1.98-2.5H496.29z"/>
		<path class="st6" d="M506.42,234.74v-14.45h2.05l4.63,7.31c1.05,1.7,1.9,3.21,2.58,4.71l0.05-0.02c-0.17-1.93-0.2-3.69-0.2-5.93
			v-6.06h1.76v14.45h-1.9l-4.6-7.33c-0.99-1.62-1.97-3.27-2.69-4.84l-0.06,0.02c0.11,1.83,0.14,3.58,0.14,5.96v6.18H506.42z"/>
	</g>
</g>
<g>
	<g>
		<path class="st6" d="M42.18,190.93c-0.3-5.33-0.65-11.79-0.61-16.53h-0.16c-1.32,4.45-2.91,9.28-4.82,14.53l-6.76,18.59h-3.74
			l-6.24-18.25c-1.83-5.41-3.31-10.33-4.39-14.87h-0.13c-0.14,4.78-0.38,11.16-0.75,16.91l-1.02,16.45h-4.7l2.67-38.32h6.32
			l6.53,18.55c1.58,4.69,2.86,8.91,3.86,12.91h0.15c1-3.88,2.35-8.11,4.05-12.91l6.84-18.55h6.33l2.38,38.32H43.1L42.18,190.93z"/>
		<path class="st6" d="M64.47,195.71l-3.96,12.05h-5.13l13.04-38.32h5.95l13.09,38.32h-5.29l-4.1-12.05H64.47z M77.05,191.84
			l-3.79-11.03c-0.83-2.51-1.41-4.79-1.97-6.99h-0.14c-0.55,2.24-1.15,4.58-1.9,6.93l-3.77,11.09H77.05z"/>
		<path class="st6" d="M124.66,206.03c-2.22,0.84-6.62,2.11-11.78,2.11c-5.81,0-10.6-1.47-14.33-5.07
			c-3.3-3.18-5.34-8.26-5.33-14.23c0.02-11.43,7.88-19.79,20.72-19.79c4.43,0,7.94,0.97,9.59,1.76l-1.24,4.04
			c-2.04-0.93-4.6-1.64-8.46-1.64c-9.3,0-15.39,5.79-15.39,15.39c0,9.71,5.83,15.46,14.79,15.46c3.24,0,5.43-0.46,6.58-1.03V191.6
			h-7.75v-3.96h12.62V206.03z"/>
		<path class="st6" d="M135.44,207.76v-38.32h5.44l12.28,19.37c2.8,4.5,5.03,8.52,6.84,12.48l0.13-0.06
			c-0.45-5.12-0.54-9.79-0.54-15.73v-16.06h4.66v38.32h-5.03l-12.18-19.43c-2.64-4.3-5.22-8.67-7.13-12.83l-0.17,0.06
			c0.3,4.85,0.37,9.47,0.37,15.81v16.39H135.44z"/>
		<path class="st6" d="M182.32,195.71l-3.96,12.05h-5.13l13.04-38.32h5.95l13.09,38.32h-5.29l-4.1-12.05H182.32z M194.91,191.84
			l-3.79-11.03c-0.83-2.51-1.41-4.79-1.97-6.99h-0.14c-0.55,2.24-1.15,4.58-1.9,6.93l-3.77,11.09H194.91z"/>
		<path class="st6" d="M214.16,207.76v-38.32h5.44l12.28,19.37c2.8,4.5,5.03,8.52,6.84,12.48l0.13-0.06
			c-0.45-5.12-0.54-9.79-0.54-15.73v-16.06h4.66v38.32h-5.03l-12.18-19.43c-2.64-4.3-5.22-8.67-7.13-12.83l-0.17,0.06
			c0.3,4.85,0.37,9.47,0.37,15.81v16.39H214.16z"/>
		<path class="st6" d="M259.8,169.44v38.32h-4.97v-38.32H259.8z"/>
		<path class="st6" d="M271.66,207.76v-38.32h5.44l12.28,19.37c2.8,4.5,5.03,8.52,6.84,12.48l0.13-0.06
			c-0.45-5.12-0.54-9.79-0.54-15.73v-16.06h4.66v38.32h-5.03l-12.18-19.43c-2.64-4.3-5.22-8.67-7.13-12.83l-0.17,0.06
			c0.29,4.85,0.36,9.47,0.36,15.81v16.39H271.66z"/>
		<path class="st6" d="M317.31,169.44v38.32h-4.98v-38.32H317.31z"/>
		<path class="st6" d="M368.49,207.76c-1.1-1.1-2.09-2.18-3.58-3.74c-3.34,3.04-6.98,4.36-11.19,4.36
			c-7.44,0-11.78-5.01-11.78-10.75c0-5.23,3.14-8.79,7.47-11.19l0.01-0.18c-1.97-2.48-3.19-5.28-3.19-8c0-4.69,3.38-9.46,9.74-9.46
			c4.77,0,8.48,3.16,8.48,8.14c0,4.02-2.36,7.2-8.41,10.22l-0.01,0.2c3.25,3.76,6.88,7.92,9.34,10.66
			c1.77-2.68,2.94-6.37,3.69-11.18h4.53c-1.03,6.02-2.66,10.78-5.52,14.14c2.06,2.19,4.04,4.33,6.35,6.78H368.49z M362.43,201.17
			c-2.27-2.49-6.54-7.18-10.76-12.07c-2.09,1.33-4.95,3.75-4.95,7.78c0,4.41,3.22,7.74,7.82,7.74
			C357.87,204.62,360.61,203.16,362.43,201.17z M350.78,177.79c0,2.75,1.29,4.86,2.91,6.9c3.89-2.22,6.36-4.26,6.36-7.5
			c0-2.37-1.33-4.96-4.46-4.96C352.45,172.22,350.78,174.86,350.78,177.79z"/>
		<path class="st6" d="M403.64,195.71l-3.96,12.05h-5.13l13.04-38.32h5.95l13.09,38.32h-5.29l-4.1-12.05H403.64z M416.23,191.84
			l-3.79-11.03c-0.83-2.51-1.41-4.79-1.97-6.99h-0.14c-0.55,2.24-1.15,4.58-1.9,6.93l-3.77,11.09H416.23z"/>
		<path class="st6" d="M434.84,201.72c2.21,1.39,5.44,2.48,8.84,2.48c5.06,0,8.04-2.64,8.04-6.52c0-3.55-2.08-5.65-7.25-7.59
			c-6.25-2.22-10.13-5.51-10.13-10.87c0-5.97,4.96-10.39,12.42-10.39c3.89,0,6.78,0.9,8.46,1.85l-1.38,4.06
			c-1.22-0.72-3.78-1.82-7.24-1.82c-5.26,0-7.25,3.12-7.25,5.73c0,3.56,2.33,5.31,7.62,7.36c6.5,2.55,9.77,5.67,9.77,11.29
			c0,5.88-4.33,11.05-13.41,11.05c-3.7,0-7.74-1.12-9.79-2.5L434.84,201.72z"/>
		<path class="st6" d="M499.54,188.21c0,13.15-8.01,20.17-17.78,20.17c-10.16,0-17.22-7.87-17.22-19.45
			c0-12.14,7.52-20.12,17.75-20.12C492.74,168.81,499.54,176.83,499.54,188.21z M469.77,188.82c0,8.2,4.45,15.54,12.26,15.54
			c7.86,0,12.28-7.22,12.28-15.92c0-7.63-3.98-15.59-12.21-15.59C473.86,172.84,469.77,180.44,469.77,188.82z"/>
		<path class="st6" d="M535.99,206.53c-1.79,0.9-5.46,1.83-10.13,1.83c-10.79,0-18.89-6.83-18.89-19.41c0-12.03,8.11-20.11,20-20.11
			c4.73,0,7.79,1,9.09,1.68l-1.22,4.03c-1.86-0.88-4.52-1.58-7.71-1.58c-9,0-14.95,5.75-14.95,15.81c0,9.38,5.4,15.36,14.68,15.36
			c3.04,0,6.11-0.61,8.12-1.57L535.99,206.53z"/>
		<path class="st6" d="M544.1,204.82c0-2.1,1.41-3.61,3.39-3.61c2.01,0,3.35,1.49,3.36,3.61c0,2.01-1.33,3.56-3.39,3.56
			C545.46,208.38,544.07,206.82,544.1,204.82z"/>
	</g>
</g>
<g>
	<g>
		<linearGradient id="SVGID_5_" gradientUnits="userSpaceOnUse" x1="213.1118" y1="119.7585" x2="264.8308" y2="36.8947">
			<stop  offset="0.0616" style="stop-color:#399DD7"/>
			<stop  offset="0.9907" style="stop-color:#50B4BC"/>
			<stop  offset="1" style="stop-color:#50B4BC"/>
		</linearGradient>
		<path class="st7" d="M264.67,50.51c4.43-7.41,10.01-17.43,16.94-22.86c-16.15-12.64-27.44,8.43-35.09,21.23
			c-7.65,12.81-15.63,25.95-23.55,38.8c-7.81,12.69-16.76,25.07-23.81,38.19c-1.43,2.67,5.18,4.09,6.74,4.45
			c3.02,0.7,6.05,0.98,9.05,0.87c7.38-13.48,16.57-26.27,24.63-39.35C248.02,78.15,256.52,64.15,264.67,50.51z"/>
		<linearGradient id="SVGID_6_" gradientUnits="userSpaceOnUse" x1="280.3758" y1="44.0397" x2="234.697" y2="127.4697">
			<stop  offset="0.0616" style="stop-color:#399DD7"/>
			<stop  offset="0.9907" style="stop-color:#50B4BC"/>
			<stop  offset="1" style="stop-color:#50B4BC"/>
		</linearGradient>
		<path class="st8" d="M259.25,89c7.43-12.58,14.7-25.24,22.57-37.52c0.01-0.02,0.03-0.04,0.04-0.07c3.18-4.96,8.84-6.52,13.75-2.88
			c-4-6.55-7.26-13.33-11.99-19.17c-0.68-0.63-1.35-1.2-2.01-1.72c-6.93,5.43-12.51,15.45-16.94,22.86
			c-8.15,13.64-16.65,27.64-25.08,41.33c-8.06,13.08-17.25,25.87-24.63,39.35c8.39-0.31,16.45-3.72,22.69-9.7
			C247.14,112.39,252.65,100.18,259.25,89z"/>
	</g>
	<g>
		<linearGradient id="SVGID_7_" gradientUnits="userSpaceOnUse" x1="278.2325" y1="119.7585" x2="329.9515" y2="36.8947">
			<stop  offset="0.0616" style="stop-color:#399DD7"/>
			<stop  offset="0.9907" style="stop-color:#50B4BC"/>
			<stop  offset="1" style="stop-color:#50B4BC"/>
		</linearGradient>
		<path class="st9" d="M329.79,50.51c4.43-7.41,10.01-17.43,16.94-22.86c-16.15-12.64-27.44,8.43-35.09,21.23
			c-7.65,12.81-15.63,25.95-23.55,38.8c-7.81,12.69-16.76,25.07-23.81,38.19c-1.43,2.67,5.18,4.09,6.74,4.45
			c3.02,0.7,6.05,0.98,9.05,0.87c7.38-13.48,16.57-26.27,24.63-39.35C313.14,78.15,321.64,64.15,329.79,50.51z"/>
		<linearGradient id="SVGID_8_" gradientUnits="userSpaceOnUse" x1="345.4965" y1="44.0397" x2="299.8177" y2="127.4697">
			<stop  offset="0.0616" style="stop-color:#399DD7"/>
			<stop  offset="0.9907" style="stop-color:#50B4BC"/>
			<stop  offset="1" style="stop-color:#50B4BC"/>
		</linearGradient>
		<path class="st10" d="M324.37,89c7.45-12.71,14.7-25.24,22.57-37.52c0.01-0.02,0.03-0.04,0.04-0.07
			c3.18-4.96,8.84-6.52,13.75-2.88c-4-6.55-7.26-13.33-11.99-19.17c-0.68-0.63-1.35-1.2-2.01-1.72
			c-6.93,5.43-12.51,15.45-16.94,22.86c-8.15,13.64-16.65,27.64-25.08,41.33c-8.06,13.08-17.25,25.87-24.63,39.35
			c8.39-0.31,16.45-3.72,22.69-9.7C312.26,112.39,317.8,100.21,324.37,89z"/>
	</g>
</g>
</svg>
