<?xml version="1.0" encoding="utf-8"?>
<!-- Generator: Adobe Illustrator 24.0.2, SVG Export Plug-In . SVG Version: 6.00 Build 0)  -->
<svg version="1.1" id="Layer_1" xmlns="http://www.w3.org/2000/svg" xmlns:xlink="http://www.w3.org/1999/xlink" x="0px" y="0px"
	 viewBox="0 0 628.21 331.14" style="enable-background:new 0 0 628.21 331.14;" xml:space="preserve">
<style type="text/css">
	.st0{fill:#FFFFFF;}
	.st1{fill:#231F20;}
	.st2{fill:url(#SVGID_1_);}
	.st3{fill:url(#SVGID_2_);}
	.st4{fill:url(#SVGID_3_);}
	.st5{fill:url(#SVGID_4_);}
</style>
<g>
	<g>
		<g>
			<g>
				<path class="st0" d="M2920-622.47l-1.49,4.54h-1.94l4.91-14.45h2.24l4.94,14.45h-2l-1.55-4.54H2920z M2924.75-623.93l-1.43-4.16
					c-0.31-0.95-0.53-1.81-0.74-2.64h-0.05c-0.21,0.84-0.43,1.73-0.72,2.61l-1.42,4.18H2924.75z"/>
				<path class="st0" d="M2934.78-620.2c0.83,0.52,2.05,0.94,3.34,0.94c1.91,0,3.03-1,3.03-2.46c0-1.34-0.78-2.13-2.74-2.86
					c-2.36-0.83-3.82-2.08-3.82-4.1c0-2.25,1.87-3.92,4.68-3.92c1.47,0,2.56,0.34,3.19,0.7l-0.52,1.53
					c-0.46-0.27-1.43-0.69-2.73-0.69c-1.99,0-2.74,1.18-2.74,2.16c0,1.34,0.88,2,2.87,2.77c2.45,0.96,3.69,2.14,3.69,4.26
					c0,2.22-1.63,4.17-5.06,4.17c-1.4,0-2.92-0.42-3.69-0.94L2934.78-620.2z"/>
				<path class="st0" d="M2951.7-632.38v8.57c0,3.22,1.43,4.59,3.38,4.59c2.13,0,3.52-1.42,3.52-4.59v-8.57h1.88v8.44
					c0,4.44-2.34,6.25-5.47,6.25c-2.95,0-5.18-1.68-5.18-6.18v-8.51H2951.7z"/>
				<path class="st0" d="M2967.95-617.93v-14.45h2.05l4.63,7.31c1.05,1.7,1.9,3.21,2.58,4.71l0.05-0.02
					c-0.17-1.93-0.2-3.69-0.2-5.93v-6.06h1.76v14.45h-1.89l-4.6-7.33c-0.99-1.62-1.97-3.27-2.69-4.84l-0.06,0.02
					c0.11,1.83,0.14,3.58,0.14,5.96v6.18H2967.95z"/>
				<path class="st0" d="M2989.07-630.8h-4.4v-1.58h10.7v1.58h-4.43v12.87h-1.88V-630.8z"/>
				<path class="st0" d="M3012.99-625.3c0,4.96-3.02,7.61-6.71,7.61c-3.83,0-6.5-2.97-6.5-7.34c0-4.58,2.84-7.59,6.69-7.59
					C3010.43-632.61,3012.99-629.59,3012.99-625.3z M3001.76-625.07c0,3.09,1.68,5.86,4.62,5.86c2.97,0,4.63-2.72,4.63-6.01
					c0-2.88-1.5-5.88-4.61-5.88C3003.31-631.1,3001.76-628.23,3001.76-625.07z"/>
				<path class="st0" d="M3019.4-620.2c0.83,0.52,2.05,0.94,3.34,0.94c1.91,0,3.03-1,3.03-2.46c0-1.34-0.78-2.13-2.74-2.86
					c-2.36-0.83-3.82-2.08-3.82-4.1c0-2.25,1.87-3.92,4.68-3.92c1.47,0,2.56,0.34,3.19,0.7l-0.52,1.53
					c-0.46-0.27-1.43-0.69-2.73-0.69c-1.99,0-2.74,1.18-2.74,2.16c0,1.34,0.88,2,2.87,2.77c2.45,0.96,3.69,2.14,3.69,4.26
					c0,2.22-1.63,4.17-5.06,4.17c-1.4,0-2.92-0.42-3.69-0.94L3019.4-620.2z"/>
				<path class="st0" d="M3043.25-632.2c0.9-0.16,2.08-0.29,3.59-0.29c1.83,0,3.19,0.42,4.05,1.2c0.78,0.69,1.27,1.74,1.27,3.03
					c0,1.31-0.39,2.34-1.12,3.09c-0.99,1.06-2.59,1.58-4.42,1.58c-0.57,0-1.08-0.02-1.51-0.14v5.8h-1.86V-632.2z M3045.12-625.24
					c0.42,0.12,0.93,0.16,1.55,0.16c2.26,0,3.63-1.11,3.63-3.08c0-1.91-1.37-2.85-3.42-2.85c-0.82,0-1.44,0.08-1.77,0.15V-625.24z"
					/>
				<path class="st0" d="M3060.77-632.38v8.57c0,3.22,1.43,4.59,3.38,4.59c2.13,0,3.52-1.42,3.52-4.59v-8.57h1.88v8.44
					c0,4.44-2.34,6.25-5.47,6.25c-2.95,0-5.18-1.68-5.18-6.18v-8.51H3060.77z M3067.42-635.65l-2.73,2.5h-1.53l1.98-2.5H3067.42z"/>
				<path class="st0" d="M3077.02-632.18c0.82-0.18,2.12-0.31,3.41-0.31c1.87,0,3.07,0.32,3.97,1.05c0.75,0.57,1.21,1.43,1.21,2.56
					c0,1.39-0.93,2.63-2.44,3.16v0.06c1.38,0.33,2.98,1.46,2.98,3.63c0,1.23-0.49,2.19-1.24,2.88c-0.99,0.93-2.62,1.36-4.99,1.36
					c-1.29,0-2.27-0.09-2.9-0.16V-632.18z M3078.89-626.26h1.71c1.95,0,3.11-1.04,3.11-2.44c0-1.68-1.27-2.35-3.16-2.35
					c-0.87,0-1.36,0.06-1.67,0.14V-626.26z M3078.89-619.35c0.38,0.08,0.9,0.1,1.57,0.1c1.94,0,3.72-0.71,3.72-2.81
					c0-1.97-1.7-2.79-3.74-2.8h-1.55V-619.35z"/>
				<path class="st0" d="M3092.89-632.38h1.88v12.88h6.18v1.57h-8.06V-632.38z"/>
				<path class="st0" d="M3109.13-632.38v14.45h-1.88v-14.45H3109.13z"/>
				<path class="st0" d="M3126.72-618.39c-0.67,0.34-2.06,0.69-3.82,0.69c-4.07,0-7.13-2.58-7.13-7.32c0-4.54,3.06-7.58,7.55-7.58
					c1.78,0,2.94,0.38,3.43,0.64l-0.46,1.52c-0.7-0.33-1.71-0.6-2.91-0.6c-3.39,0-5.64,2.17-5.64,5.97c0,3.54,2.04,5.8,5.54,5.8
					c1.15,0,2.3-0.23,3.06-0.59L3126.72-618.39z"/>
				<path class="st0" d="M3145.22-625.3c0,4.96-3.02,7.61-6.71,7.61c-3.83,0-6.5-2.97-6.5-7.34c0-4.58,2.84-7.59,6.69-7.59
					C3142.65-632.61,3145.22-629.59,3145.22-625.3z M3133.98-625.07c0,3.09,1.68,5.86,4.62,5.86c2.97,0,4.63-2.72,4.63-6.01
					c0-2.88-1.5-5.88-4.61-5.88C3135.53-631.1,3133.98-628.23,3133.98-625.07z"/>
				<path class="st0" d="M3151.63-620.2c0.83,0.52,2.05,0.94,3.34,0.94c1.91,0,3.03-1,3.03-2.46c0-1.34-0.78-2.13-2.74-2.86
					c-2.36-0.83-3.82-2.08-3.82-4.1c0-2.25,1.87-3.92,4.68-3.92c1.47,0,2.56,0.34,3.19,0.7l-0.52,1.53
					c-0.46-0.27-1.43-0.69-2.73-0.69c-1.99,0-2.74,1.18-2.74,2.16c0,1.34,0.88,2,2.87,2.77c2.45,0.96,3.69,2.14,3.69,4.26
					c0,2.22-1.63,4.17-5.06,4.17c-1.4,0-2.92-0.42-3.69-0.94L3151.63-620.2z"/>
				<path class="st0" d="M3177.72-617.93v-6.13l-4.58-8.33h2.14l2.03,3.99c0.55,1.1,0.99,1.97,1.44,2.98h0.04
					c0.4-0.95,0.89-1.9,1.45-2.99l2.08-3.98h2.12l-4.84,8.3v6.16H3177.72z"/>
				<path class="st0" d="M3209.23-618.39c-0.67,0.34-2.06,0.69-3.82,0.69c-4.07,0-7.13-2.58-7.13-7.32c0-4.54,3.06-7.58,7.55-7.58
					c1.78,0,2.94,0.38,3.43,0.64l-0.46,1.52c-0.7-0.33-1.71-0.6-2.91-0.6c-3.39,0-5.64,2.17-5.64,5.97c0,3.54,2.04,5.8,5.54,5.8
					c1.15,0,2.3-0.23,3.06-0.59L3209.23-618.39z"/>
				<path class="st0" d="M3227.72-625.3c0,4.96-3.02,7.61-6.71,7.61c-3.83,0-6.5-2.97-6.5-7.34c0-4.58,2.84-7.59,6.69-7.59
					C3225.15-632.61,3227.72-629.59,3227.72-625.3z M3216.49-625.07c0,3.09,1.68,5.86,4.62,5.86c2.97,0,4.63-2.72,4.63-6.01
					c0-2.88-1.5-5.88-4.61-5.88C3218.03-631.1,3216.49-628.23,3216.49-625.07z"/>
				<path class="st0" d="M3246.57-624.27c-0.11-2.01-0.25-4.45-0.23-6.24h-0.06c-0.5,1.68-1.1,3.5-1.82,5.48l-2.55,7.01h-1.41
					l-2.35-6.88c-0.69-2.04-1.25-3.9-1.66-5.61h-0.05c-0.05,1.8-0.14,4.21-0.28,6.38l-0.38,6.2H3234l1-14.45h2.39l2.46,7
					c0.59,1.77,1.08,3.36,1.45,4.87h0.06c0.38-1.46,0.88-3.06,1.53-4.87l2.58-7h2.39l0.9,14.45h-1.84L3246.57-624.27z"/>
				<path class="st0" d="M3257.73-632.38v8.57c0,3.22,1.43,4.59,3.38,4.59c2.13,0,3.52-1.42,3.52-4.59v-8.57h1.88v8.44
					c0,4.44-2.34,6.25-5.47,6.25c-2.95,0-5.18-1.68-5.18-6.18v-8.51H3257.73z"/>
				<path class="st0" d="M3273.97-617.93v-14.45h2.05l4.63,7.31c1.05,1.7,1.9,3.21,2.58,4.71l0.05-0.02
					c-0.17-1.93-0.2-3.69-0.2-5.93v-6.06h1.76v14.45h-1.9l-4.6-7.33c-0.99-1.62-1.97-3.27-2.69-4.84l-0.06,0.02
					c0.11,1.83,0.14,3.58,0.14,5.96v6.18H3273.97z"/>
				<path class="st0" d="M3294.21-632.38v14.45h-1.88v-14.45H3294.21z"/>
				<path class="st0" d="M3311.8-618.39c-0.67,0.34-2.06,0.69-3.82,0.69c-4.07,0-7.13-2.58-7.13-7.32c0-4.54,3.06-7.58,7.55-7.58
					c1.78,0,2.94,0.38,3.43,0.64l-0.46,1.52c-0.7-0.33-1.71-0.6-2.91-0.6c-3.39,0-5.64,2.17-5.64,5.97c0,3.54,2.04,5.8,5.54,5.8
					c1.15,0,2.3-0.23,3.06-0.59L3311.8-618.39z"/>
				<path class="st0" d="M3320.81-622.47l-1.5,4.54h-1.93l4.91-14.45h2.24l4.94,14.45h-2l-1.55-4.54H3320.81z M3325.55-623.93
					l-1.43-4.16c-0.31-0.95-0.53-1.81-0.74-2.64h-0.05c-0.21,0.84-0.43,1.73-0.72,2.61l-1.42,4.18H3325.55z"/>
				<path class="st0" d="M3345.61-618.39c-0.67,0.34-2.06,0.69-3.82,0.69c-4.07,0-7.13-2.58-7.13-7.32c0-4.54,3.06-7.58,7.55-7.58
					c1.78,0,2.94,0.38,3.43,0.64l-0.46,1.52c-0.7-0.33-1.71-0.6-2.91-0.6c-3.39,0-5.64,2.17-5.64,5.97c0,3.54,2.04,5.8,5.54,5.8
					c1.15,0,2.3-0.23,3.06-0.59L3345.61-618.39z"/>
				<path class="st0" d="M3354.07-632.38v14.45h-1.88v-14.45H3354.07z"/>
				<path class="st0" d="M3373.92-625.3c0,4.96-3.02,7.61-6.71,7.61c-3.83,0-6.5-2.97-6.5-7.34c0-4.58,2.84-7.59,6.69-7.59
					C3371.36-632.61,3373.92-629.59,3373.92-625.3z M3362.69-625.07c0,3.09,1.68,5.86,4.62,5.86c2.97,0,4.63-2.72,4.63-6.01
					c0-2.88-1.5-5.88-4.61-5.88C3364.24-631.1,3362.69-628.23,3362.69-625.07z M3370.45-635.71l-2.73,2.5h-1.53l1.98-2.5H3370.45z"
					/>
				<path class="st0" d="M3380.58-617.93v-14.45h2.05l4.63,7.31c1.05,1.7,1.89,3.21,2.58,4.71l0.05-0.02
					c-0.17-1.93-0.2-3.69-0.2-5.93v-6.06h1.76v14.45h-1.9l-4.6-7.33c-0.99-1.62-1.97-3.27-2.69-4.84l-0.06,0.02
					c0.11,1.83,0.14,3.58,0.14,5.96v6.18H3380.58z"/>
			</g>
		</g>
		<g>
			<g>
				<path class="st0" d="M2949.83-661.73c-0.3-5.33-0.65-11.79-0.61-16.53h-0.16c-1.32,4.45-2.91,9.28-4.82,14.53l-6.76,18.59h-3.74
					l-6.24-18.25c-1.83-5.41-3.31-10.33-4.39-14.87h-0.13c-0.14,4.78-0.38,11.16-0.75,16.91l-1.02,16.45h-4.7l2.67-38.32h6.32
					l6.53,18.55c1.58,4.69,2.86,8.91,3.86,12.91h0.15c1-3.88,2.34-8.11,4.05-12.91l6.84-18.55h6.33l2.38,38.32h-4.87L2949.83-661.73
					z"/>
				<path class="st0" d="M2972.11-656.95l-3.96,12.05h-5.13l13.04-38.32h5.95l13.09,38.32h-5.29l-4.1-12.05H2972.11z M2984.7-660.82
					l-3.79-11.03c-0.83-2.51-1.41-4.79-1.97-6.99h-0.14c-0.55,2.24-1.15,4.58-1.9,6.93l-3.77,11.09H2984.7z"/>
				<path class="st0" d="M3032.3-646.63c-2.22,0.84-6.62,2.11-11.78,2.11c-5.81,0-10.6-1.47-14.33-5.07
					c-3.3-3.18-5.34-8.26-5.33-14.23c0.02-11.43,7.88-19.79,20.72-19.79c4.43,0,7.94,0.97,9.59,1.76l-1.24,4.04
					c-2.04-0.93-4.6-1.64-8.46-1.64c-9.3,0-15.39,5.79-15.39,15.39c0,9.71,5.83,15.46,14.79,15.46c3.24,0,5.43-0.46,6.58-1.03
					v-11.41h-7.75v-3.96h12.62V-646.63z"/>
				<path class="st0" d="M3043.08-644.9v-38.32h5.44l12.28,19.37c2.8,4.5,5.03,8.52,6.84,12.48l0.13-0.06
					c-0.45-5.12-0.54-9.79-0.54-15.73v-16.06h4.66v38.32h-5.03l-12.18-19.43c-2.64-4.3-5.22-8.67-7.13-12.83l-0.17,0.06
					c0.3,4.85,0.37,9.47,0.37,15.81v16.39H3043.08z"/>
				<path class="st0" d="M3089.97-656.95l-3.96,12.05h-5.13l13.03-38.32h5.95l13.09,38.32h-5.29l-4.1-12.05H3089.97z
					 M3102.56-660.82l-3.79-11.03c-0.83-2.51-1.41-4.79-1.97-6.99h-0.14c-0.55,2.24-1.15,4.58-1.9,6.93l-3.77,11.09H3102.56z"/>
				<path class="st0" d="M3121.81-644.9v-38.32h5.44l12.28,19.37c2.8,4.5,5.03,8.52,6.84,12.48l0.13-0.06
					c-0.45-5.12-0.54-9.79-0.54-15.73v-16.06h4.66v38.32h-5.03l-12.18-19.43c-2.64-4.3-5.22-8.67-7.13-12.83l-0.17,0.06
					c0.3,4.85,0.37,9.47,0.37,15.81v16.39H3121.81z"/>
				<path class="st0" d="M3167.45-683.22v38.32h-4.97v-38.32H3167.45z"/>
				<path class="st0" d="M3179.31-644.9v-38.32h5.44l12.28,19.37c2.8,4.5,5.03,8.52,6.84,12.48l0.13-0.06
					c-0.45-5.12-0.54-9.79-0.54-15.73v-16.06h4.66v38.32h-5.03l-12.18-19.43c-2.64-4.3-5.22-8.67-7.13-12.83l-0.17,0.06
					c0.29,4.85,0.36,9.47,0.36,15.81v16.39H3179.31z"/>
				<path class="st0" d="M3224.96-683.22v38.32h-4.98v-38.32H3224.96z"/>
				<path class="st0" d="M3276.13-644.9c-1.1-1.1-2.09-2.18-3.58-3.74c-3.34,3.04-6.98,4.36-11.19,4.36
					c-7.44,0-11.78-5.01-11.78-10.75c0-5.23,3.14-8.79,7.47-11.19l0.01-0.18c-1.97-2.48-3.19-5.28-3.19-8
					c0-4.69,3.38-9.46,9.74-9.46c4.77,0,8.48,3.16,8.48,8.14c0,4.02-2.36,7.2-8.41,10.22l-0.01,0.2c3.25,3.76,6.88,7.92,9.34,10.66
					c1.77-2.68,2.94-6.37,3.69-11.18h4.53c-1.03,6.02-2.66,10.78-5.52,14.14c2.06,2.19,4.04,4.33,6.35,6.78H3276.13z
					 M3270.08-651.49c-2.27-2.49-6.54-7.18-10.76-12.07c-2.09,1.33-4.95,3.75-4.95,7.78c0,4.41,3.22,7.74,7.82,7.74
					C3265.52-648.04,3268.26-649.5,3270.08-651.49z M3258.43-674.88c0,2.75,1.29,4.86,2.92,6.9c3.89-2.22,6.36-4.26,6.36-7.5
					c0-2.37-1.33-4.96-4.46-4.96C3260.1-680.44,3258.43-677.8,3258.43-674.88z"/>
				<path class="st0" d="M3311.29-656.95l-3.96,12.05h-5.13l13.04-38.32h5.95l13.09,38.32h-5.29l-4.1-12.05H3311.29z
					 M3323.88-660.82l-3.79-11.03c-0.83-2.51-1.41-4.79-1.97-6.99h-0.14c-0.55,2.24-1.15,4.58-1.9,6.93l-3.77,11.09H3323.88z"/>
				<path class="st0" d="M3342.49-650.94c2.21,1.39,5.44,2.48,8.84,2.48c5.06,0,8.04-2.64,8.04-6.52c0-3.55-2.08-5.65-7.25-7.59
					c-6.25-2.22-10.13-5.51-10.13-10.87c0-5.97,4.96-10.39,12.42-10.39c3.89,0,6.78,0.9,8.46,1.85l-1.38,4.06
					c-1.22-0.72-3.78-1.82-7.24-1.82c-5.26,0-7.25,3.12-7.25,5.73c0,3.56,2.33,5.31,7.62,7.36c6.5,2.55,9.77,5.67,9.77,11.29
					c0,5.88-4.33,11.05-13.41,11.05c-3.7,0-7.74-1.12-9.79-2.5L3342.49-650.94z"/>
				<path class="st0" d="M3407.19-664.45c0,13.15-8.01,20.17-17.78,20.17c-10.16,0-17.22-7.87-17.22-19.45
					c0-12.14,7.52-20.12,17.75-20.12C3400.39-683.85,3407.19-675.83,3407.19-664.45z M3377.42-663.84c0,8.2,4.45,15.54,12.26,15.54
					c7.86,0,12.28-7.22,12.28-15.92c0-7.63-3.98-15.59-12.21-15.59C3381.51-679.82,3377.42-672.23,3377.42-663.84z"/>
				<path class="st0" d="M3443.63-646.13c-1.79,0.9-5.46,1.83-10.13,1.83c-10.79,0-18.89-6.83-18.89-19.41
					c0-12.03,8.11-20.11,20-20.11c4.73,0,7.79,1,9.09,1.68l-1.22,4.03c-1.86-0.88-4.52-1.58-7.71-1.58c-9,0-14.95,5.75-14.95,15.81
					c0,9.38,5.4,15.36,14.68,15.36c3.04,0,6.11-0.61,8.12-1.57L3443.63-646.13z"/>
				<path class="st0" d="M3451.74-647.84c0-2.1,1.41-3.61,3.39-3.61c2.01,0,3.35,1.49,3.36,3.61c0,2.01-1.33,3.56-3.39,3.56
					C3453.11-644.28,3451.71-645.84,3451.74-647.84z"/>
			</g>
		</g>
	</g>
	<g>
		<path class="st0" d="M2803.83-680.37c3.18-4.96,8.84-6.52,13.75-2.88c-4-6.55-7.26-13.33-11.99-19.17
			c-0.68-0.63-1.35-1.2-2.01-1.72c-16.15-12.64-27.44,8.43-35.09,21.23c-7.65,12.81-15.63,25.95-23.55,38.8
			c-7.81,12.69-16.76,25.07-23.81,38.19c-1.43,2.67,5.18,4.09,6.74,4.45c3.02,0.7,6.05,0.98,9.05,0.87
			c8.39-0.31,16.45-3.72,22.69-9.7c9.49-9.1,15.45-21.05,21.6-32.49c6.91-12.84,14.7-25.24,22.57-37.52
			C2803.8-680.32,2803.81-680.34,2803.83-680.37z"/>
		<path class="st0" d="M2870.71-702.42c-0.68-0.63-1.35-1.2-2.01-1.72c-16.15-12.64-27.44,8.43-35.09,21.23
			c-7.65,12.81-15.63,25.95-23.55,38.8c-7.81,12.69-16.76,25.07-23.81,38.19c-1.43,2.67,5.18,4.09,6.74,4.45
			c3.02,0.7,6.05,0.98,9.05,0.87c8.39-0.31,16.45-3.72,22.69-9.7c9.49-9.1,15.45-21.05,21.6-32.49
			c6.91-12.84,14.7-25.24,22.57-37.52c0.01-0.02,0.03-0.04,0.04-0.07c3.18-4.96,8.84-6.52,13.75-2.88
			C2878.7-689.8,2875.44-696.57,2870.71-702.42z"/>
	</g>
</g>
<g>
	<g>
		<g>
			<g>
				<path class="st1" d="M1691.5-622.47l-1.49,4.54h-1.94l4.91-14.45h2.24l4.94,14.45h-2l-1.55-4.54H1691.5z M1696.25-623.93
					l-1.43-4.16c-0.31-0.95-0.53-1.81-0.74-2.64h-0.05c-0.21,0.84-0.43,1.73-0.72,2.61l-1.42,4.18H1696.25z"/>
				<path class="st1" d="M1706.28-620.2c0.83,0.52,2.05,0.94,3.34,0.94c1.91,0,3.03-1,3.03-2.46c0-1.34-0.78-2.13-2.74-2.86
					c-2.36-0.83-3.82-2.08-3.82-4.1c0-2.25,1.87-3.92,4.68-3.92c1.47,0,2.56,0.34,3.19,0.7l-0.52,1.53
					c-0.46-0.27-1.43-0.69-2.73-0.69c-1.99,0-2.74,1.18-2.74,2.16c0,1.34,0.88,2,2.87,2.77c2.45,0.96,3.69,2.14,3.69,4.26
					c0,2.22-1.63,4.17-5.06,4.17c-1.4,0-2.92-0.42-3.69-0.94L1706.28-620.2z"/>
				<path class="st1" d="M1723.21-632.38v8.57c0,3.22,1.43,4.59,3.38,4.59c2.13,0,3.52-1.42,3.52-4.59v-8.57h1.88v8.44
					c0,4.44-2.34,6.25-5.47,6.25c-2.95,0-5.18-1.68-5.18-6.18v-8.51H1723.21z"/>
				<path class="st1" d="M1739.46-617.93v-14.45h2.05l4.63,7.31c1.05,1.7,1.9,3.21,2.58,4.71l0.05-0.02
					c-0.17-1.93-0.2-3.69-0.2-5.93v-6.06h1.76v14.45h-1.9l-4.6-7.33c-0.99-1.62-1.97-3.27-2.69-4.84l-0.06,0.02
					c0.11,1.83,0.14,3.58,0.14,5.96v6.18H1739.46z"/>
				<path class="st1" d="M1760.57-630.8h-4.4v-1.58h10.7v1.58h-4.43v12.87h-1.88V-630.8z"/>
				<path class="st1" d="M1784.49-625.3c0,4.96-3.02,7.61-6.71,7.61c-3.83,0-6.5-2.97-6.5-7.34c0-4.58,2.84-7.59,6.69-7.59
					C1781.93-632.61,1784.49-629.59,1784.49-625.3z M1773.26-625.07c0,3.09,1.68,5.86,4.62,5.86c2.97,0,4.63-2.72,4.63-6.01
					c0-2.88-1.5-5.88-4.61-5.88C1774.81-631.1,1773.26-628.23,1773.26-625.07z"/>
				<path class="st1" d="M1790.91-620.2c0.83,0.52,2.05,0.94,3.34,0.94c1.91,0,3.03-1,3.03-2.46c0-1.34-0.78-2.13-2.74-2.86
					c-2.36-0.83-3.82-2.08-3.82-4.1c0-2.25,1.87-3.92,4.68-3.92c1.47,0,2.56,0.34,3.19,0.7l-0.52,1.53
					c-0.46-0.27-1.43-0.69-2.73-0.69c-1.99,0-2.74,1.18-2.74,2.16c0,1.34,0.88,2,2.87,2.77c2.45,0.96,3.69,2.14,3.69,4.26
					c0,2.22-1.63,4.17-5.06,4.17c-1.4,0-2.92-0.42-3.69-0.94L1790.91-620.2z"/>
				<path class="st1" d="M1814.75-632.2c0.9-0.16,2.08-0.29,3.59-0.29c1.83,0,3.19,0.42,4.05,1.2c0.78,0.69,1.27,1.74,1.27,3.03
					c0,1.31-0.39,2.34-1.12,3.09c-0.99,1.06-2.59,1.58-4.42,1.58c-0.57,0-1.08-0.02-1.51-0.14v5.8h-1.86V-632.2z M1816.62-625.24
					c0.42,0.12,0.93,0.16,1.55,0.16c2.26,0,3.63-1.11,3.63-3.08c0-1.91-1.37-2.85-3.42-2.85c-0.82,0-1.44,0.08-1.77,0.15V-625.24z"
					/>
				<path class="st1" d="M1832.27-632.38v8.57c0,3.22,1.43,4.59,3.38,4.59c2.13,0,3.52-1.42,3.52-4.59v-8.57h1.88v8.44
					c0,4.44-2.34,6.25-5.47,6.25c-2.95,0-5.18-1.68-5.18-6.18v-8.51H1832.27z M1838.92-635.65l-2.73,2.5h-1.53l1.98-2.5H1838.92z"/>
				<path class="st1" d="M1848.52-632.18c0.82-0.18,2.12-0.31,3.41-0.31c1.87,0,3.07,0.32,3.97,1.05c0.75,0.57,1.21,1.43,1.21,2.56
					c0,1.39-0.93,2.63-2.44,3.16v0.06c1.38,0.33,2.98,1.46,2.98,3.63c0,1.23-0.49,2.19-1.24,2.88c-0.99,0.93-2.62,1.36-4.99,1.36
					c-1.29,0-2.27-0.09-2.9-0.16V-632.18z M1850.39-626.26h1.71c1.95,0,3.11-1.04,3.11-2.44c0-1.68-1.27-2.35-3.16-2.35
					c-0.87,0-1.36,0.06-1.67,0.14V-626.26z M1850.39-619.35c0.38,0.08,0.9,0.1,1.57,0.1c1.94,0,3.72-0.71,3.72-2.81
					c0-1.97-1.7-2.79-3.74-2.8h-1.56V-619.35z"/>
				<path class="st1" d="M1864.39-632.38h1.88v12.88h6.18v1.57h-8.06V-632.38z"/>
				<path class="st1" d="M1880.63-632.38v14.45h-1.88v-14.45H1880.63z"/>
				<path class="st1" d="M1898.22-618.39c-0.67,0.34-2.06,0.69-3.82,0.69c-4.07,0-7.13-2.58-7.13-7.32c0-4.54,3.06-7.58,7.55-7.58
					c1.78,0,2.94,0.38,3.43,0.64l-0.46,1.52c-0.7-0.33-1.71-0.6-2.91-0.6c-3.39,0-5.64,2.17-5.64,5.97c0,3.54,2.04,5.8,5.54,5.8
					c1.15,0,2.3-0.23,3.06-0.59L1898.22-618.39z"/>
				<path class="st1" d="M1916.72-625.3c0,4.96-3.02,7.61-6.71,7.61c-3.83,0-6.5-2.97-6.5-7.34c0-4.58,2.84-7.59,6.69-7.59
					C1914.15-632.61,1916.72-629.59,1916.72-625.3z M1905.49-625.07c0,3.09,1.68,5.86,4.62,5.86c2.97,0,4.63-2.72,4.63-6.01
					c0-2.88-1.5-5.88-4.61-5.88C1907.03-631.1,1905.49-628.23,1905.49-625.07z"/>
				<path class="st1" d="M1923.13-620.2c0.83,0.52,2.05,0.94,3.34,0.94c1.91,0,3.03-1,3.03-2.46c0-1.34-0.78-2.13-2.74-2.86
					c-2.36-0.83-3.82-2.08-3.82-4.1c0-2.25,1.87-3.92,4.68-3.92c1.47,0,2.56,0.34,3.19,0.7l-0.52,1.53
					c-0.46-0.27-1.43-0.69-2.73-0.69c-1.99,0-2.74,1.18-2.74,2.16c0,1.34,0.88,2,2.87,2.77c2.45,0.96,3.69,2.14,3.69,4.26
					c0,2.22-1.63,4.17-5.06,4.17c-1.4,0-2.92-0.42-3.69-0.94L1923.13-620.2z"/>
				<path class="st1" d="M1949.23-617.93v-6.13l-4.58-8.33h2.14l2.03,3.99c0.55,1.1,0.99,1.97,1.44,2.98h0.04
					c0.4-0.95,0.89-1.9,1.45-2.99l2.08-3.98h2.12l-4.84,8.3v6.16H1949.23z"/>
				<path class="st1" d="M1980.73-618.39c-0.67,0.34-2.06,0.69-3.82,0.69c-4.07,0-7.13-2.58-7.13-7.32c0-4.54,3.06-7.58,7.55-7.58
					c1.78,0,2.94,0.38,3.43,0.64l-0.46,1.52c-0.7-0.33-1.71-0.6-2.91-0.6c-3.39,0-5.64,2.17-5.64,5.97c0,3.54,2.04,5.8,5.54,5.8
					c1.15,0,2.3-0.23,3.06-0.59L1980.73-618.39z"/>
				<path class="st1" d="M1999.22-625.3c0,4.96-3.02,7.61-6.71,7.61c-3.83,0-6.5-2.97-6.5-7.34c0-4.58,2.84-7.59,6.69-7.59
					C1996.65-632.61,1999.22-629.59,1999.22-625.3z M1987.99-625.07c0,3.09,1.68,5.86,4.62,5.86c2.97,0,4.63-2.72,4.63-6.01
					c0-2.88-1.5-5.88-4.61-5.88C1989.53-631.1,1987.99-628.23,1987.99-625.07z"/>
				<path class="st1" d="M2018.08-624.27c-0.11-2.01-0.25-4.45-0.23-6.24h-0.06c-0.5,1.68-1.1,3.5-1.82,5.48l-2.55,7.01H2012
					l-2.35-6.88c-0.69-2.04-1.25-3.9-1.66-5.61h-0.05c-0.05,1.8-0.14,4.21-0.28,6.38l-0.38,6.2h-1.77l1-14.45h2.39l2.46,7
					c0.59,1.77,1.08,3.36,1.45,4.87h0.06c0.38-1.46,0.88-3.06,1.53-4.87l2.58-7h2.39l0.9,14.45h-1.84L2018.08-624.27z"/>
				<path class="st1" d="M2029.23-632.38v8.57c0,3.22,1.43,4.59,3.38,4.59c2.13,0,3.52-1.42,3.52-4.59v-8.57h1.88v8.44
					c0,4.44-2.34,6.25-5.47,6.25c-2.95,0-5.18-1.68-5.18-6.18v-8.51H2029.23z"/>
				<path class="st1" d="M2045.48-617.93v-14.45h2.05l4.63,7.31c1.05,1.7,1.9,3.21,2.58,4.71l0.05-0.02
					c-0.17-1.93-0.2-3.69-0.2-5.93v-6.06h1.76v14.45h-1.9l-4.6-7.33c-0.99-1.62-1.97-3.27-2.69-4.84l-0.06,0.02
					c0.11,1.83,0.14,3.58,0.14,5.96v6.18H2045.48z"/>
				<path class="st1" d="M2065.71-632.38v14.45h-1.88v-14.45H2065.71z"/>
				<path class="st1" d="M2083.3-618.39c-0.67,0.34-2.06,0.69-3.82,0.69c-4.07,0-7.13-2.58-7.13-7.32c0-4.54,3.06-7.58,7.55-7.58
					c1.78,0,2.94,0.38,3.43,0.64l-0.46,1.52c-0.7-0.33-1.71-0.6-2.91-0.6c-3.39,0-5.64,2.17-5.64,5.97c0,3.54,2.04,5.8,5.54,5.8
					c1.15,0,2.3-0.23,3.06-0.59L2083.3-618.39z"/>
				<path class="st1" d="M2092.31-622.47l-1.5,4.54h-1.93l4.91-14.45h2.24l4.94,14.45h-2l-1.55-4.54H2092.31z M2097.06-623.93
					l-1.43-4.16c-0.31-0.95-0.53-1.81-0.74-2.64h-0.05c-0.21,0.84-0.43,1.73-0.72,2.61l-1.42,4.18H2097.06z"/>
				<path class="st1" d="M2117.11-618.39c-0.67,0.34-2.06,0.69-3.82,0.69c-4.07,0-7.13-2.58-7.13-7.32c0-4.54,3.06-7.58,7.55-7.58
					c1.78,0,2.94,0.38,3.43,0.64l-0.46,1.52c-0.7-0.33-1.71-0.6-2.91-0.6c-3.39,0-5.64,2.17-5.64,5.97c0,3.54,2.04,5.8,5.54,5.8
					c1.15,0,2.3-0.23,3.06-0.59L2117.11-618.39z"/>
				<path class="st1" d="M2125.57-632.38v14.45h-1.88v-14.45H2125.57z"/>
				<path class="st1" d="M2145.42-625.3c0,4.96-3.02,7.61-6.71,7.61c-3.83,0-6.5-2.97-6.5-7.34c0-4.58,2.84-7.59,6.69-7.59
					C2142.86-632.61,2145.42-629.59,2145.42-625.3z M2134.19-625.07c0,3.09,1.68,5.86,4.62,5.86c2.97,0,4.63-2.72,4.63-6.01
					c0-2.88-1.5-5.88-4.61-5.88C2135.74-631.1,2134.19-628.23,2134.19-625.07z M2141.95-635.71l-2.73,2.5h-1.53l1.98-2.5H2141.95z"
					/>
				<path class="st1" d="M2152.08-617.93v-14.45h2.05l4.63,7.31c1.05,1.7,1.9,3.21,2.58,4.71l0.05-0.02
					c-0.17-1.93-0.2-3.69-0.2-5.93v-6.06h1.76v14.45h-1.9l-4.6-7.33c-0.99-1.62-1.97-3.27-2.69-4.84l-0.06,0.02
					c0.11,1.83,0.14,3.58,0.14,5.96v6.18H2152.08z"/>
			</g>
		</g>
		<g>
			<g>
				<path class="st1" d="M1721.33-661.73c-0.3-5.33-0.65-11.79-0.61-16.53h-0.16c-1.32,4.45-2.91,9.28-4.82,14.53l-6.76,18.59h-3.74
					l-6.24-18.25c-1.83-5.41-3.31-10.33-4.39-14.87h-0.13c-0.14,4.78-0.38,11.16-0.75,16.91l-1.02,16.45h-4.7l2.67-38.32h6.32
					l6.53,18.55c1.58,4.69,2.86,8.91,3.86,12.91h0.15c1-3.88,2.35-8.11,4.05-12.91l6.84-18.55h6.33l2.38,38.32h-4.87L1721.33-661.73
					z"/>
				<path class="st1" d="M1743.62-656.95l-3.96,12.05h-5.13l13.04-38.32h5.95l13.09,38.32h-5.29l-4.1-12.05H1743.62z M1756.2-660.82
					l-3.79-11.03c-0.83-2.51-1.41-4.79-1.97-6.99h-0.14c-0.55,2.24-1.15,4.58-1.9,6.93l-3.77,11.09H1756.2z"/>
				<path class="st1" d="M1803.81-646.63c-2.22,0.84-6.62,2.11-11.78,2.11c-5.81,0-10.6-1.47-14.33-5.07
					c-3.3-3.18-5.34-8.26-5.33-14.23c0.02-11.43,7.88-19.79,20.72-19.79c4.43,0,7.94,0.97,9.59,1.76l-1.24,4.04
					c-2.04-0.93-4.6-1.64-8.46-1.64c-9.3,0-15.39,5.79-15.39,15.39c0,9.71,5.83,15.46,14.79,15.46c3.24,0,5.43-0.46,6.58-1.03
					v-11.41h-7.75v-3.96h12.62V-646.63z"/>
				<path class="st1" d="M1814.59-644.9v-38.32h5.44l12.28,19.37c2.8,4.5,5.03,8.52,6.84,12.48l0.13-0.06
					c-0.45-5.12-0.54-9.79-0.54-15.73v-16.06h4.66v38.32h-5.03l-12.18-19.43c-2.64-4.3-5.22-8.67-7.13-12.83l-0.17,0.06
					c0.3,4.85,0.37,9.47,0.37,15.81v16.39H1814.59z"/>
				<path class="st1" d="M1861.47-656.95l-3.96,12.05h-5.13l13.04-38.32h5.95l13.09,38.32h-5.29l-4.1-12.05H1861.47z
					 M1874.06-660.82l-3.79-11.03c-0.83-2.51-1.41-4.79-1.97-6.99h-0.14c-0.55,2.24-1.15,4.58-1.9,6.93l-3.77,11.09H1874.06z"/>
				<path class="st1" d="M1893.31-644.9v-38.32h5.44l12.28,19.37c2.8,4.5,5.03,8.52,6.84,12.48l0.13-0.06
					c-0.45-5.12-0.54-9.79-0.54-15.73v-16.06h4.66v38.32h-5.03l-12.18-19.43c-2.64-4.3-5.22-8.67-7.13-12.83l-0.17,0.06
					c0.3,4.85,0.37,9.47,0.37,15.81v16.39H1893.31z"/>
				<path class="st1" d="M1938.95-683.22v38.32h-4.97v-38.32H1938.95z"/>
				<path class="st1" d="M1950.81-644.9v-38.32h5.44l12.28,19.37c2.8,4.5,5.03,8.52,6.84,12.48l0.13-0.06
					c-0.45-5.12-0.54-9.79-0.54-15.73v-16.06h4.66v38.32h-5.03l-12.18-19.43c-2.64-4.3-5.22-8.67-7.13-12.83l-0.17,0.06
					c0.29,4.85,0.36,9.47,0.36,15.81v16.39H1950.81z"/>
				<path class="st1" d="M1996.46-683.22v38.32h-4.98v-38.32H1996.46z"/>
				<path class="st1" d="M2047.64-644.9c-1.1-1.1-2.09-2.18-3.58-3.74c-3.34,3.04-6.98,4.36-11.19,4.36
					c-7.44,0-11.78-5.01-11.78-10.75c0-5.23,3.14-8.79,7.47-11.19l0.01-0.18c-1.97-2.48-3.19-5.28-3.19-8
					c0-4.69,3.38-9.46,9.74-9.46c4.77,0,8.48,3.16,8.48,8.14c0,4.02-2.36,7.2-8.41,10.22l-0.01,0.2c3.25,3.76,6.88,7.92,9.34,10.66
					c1.77-2.68,2.94-6.37,3.69-11.18h4.53c-1.03,6.02-2.66,10.78-5.52,14.14c2.06,2.19,4.04,4.33,6.35,6.78H2047.64z
					 M2041.58-651.49c-2.27-2.49-6.54-7.18-10.76-12.07c-2.09,1.33-4.95,3.75-4.95,7.78c0,4.41,3.22,7.74,7.82,7.74
					C2037.02-648.04,2039.76-649.5,2041.58-651.49z M2029.93-674.88c0,2.75,1.29,4.86,2.91,6.9c3.89-2.22,6.36-4.26,6.36-7.5
					c0-2.37-1.33-4.96-4.46-4.96C2031.6-680.44,2029.93-677.8,2029.93-674.88z"/>
				<path class="st1" d="M2082.79-656.95l-3.96,12.05h-5.13l13.04-38.32h5.95l13.09,38.32h-5.29l-4.1-12.05H2082.79z
					 M2095.38-660.82l-3.79-11.03c-0.83-2.51-1.41-4.79-1.97-6.99h-0.14c-0.55,2.24-1.15,4.58-1.9,6.93l-3.77,11.09H2095.38z"/>
				<path class="st1" d="M2113.99-650.94c2.21,1.39,5.44,2.48,8.84,2.48c5.06,0,8.04-2.64,8.04-6.52c0-3.55-2.08-5.65-7.25-7.59
					c-6.25-2.22-10.13-5.51-10.13-10.87c0-5.97,4.96-10.39,12.42-10.39c3.89,0,6.78,0.9,8.46,1.85l-1.38,4.06
					c-1.22-0.72-3.78-1.82-7.24-1.82c-5.26,0-7.25,3.12-7.25,5.73c0,3.56,2.33,5.31,7.62,7.36c6.5,2.55,9.77,5.67,9.77,11.29
					c0,5.88-4.33,11.05-13.41,11.05c-3.71,0-7.74-1.12-9.79-2.5L2113.99-650.94z"/>
				<path class="st1" d="M2178.69-664.45c0,13.15-8.01,20.17-17.78,20.17c-10.16,0-17.22-7.87-17.22-19.45
					c0-12.14,7.52-20.12,17.75-20.12C2171.89-683.85,2178.69-675.83,2178.69-664.45z M2148.92-663.84c0,8.2,4.45,15.54,12.26,15.54
					c7.86,0,12.28-7.22,12.28-15.92c0-7.63-3.98-15.59-12.21-15.59C2153.01-679.82,2148.92-672.23,2148.92-663.84z"/>
				<path class="st1" d="M2215.14-646.13c-1.79,0.9-5.46,1.83-10.13,1.83c-10.79,0-18.89-6.83-18.89-19.41
					c0-12.03,8.11-20.11,20-20.11c4.73,0,7.79,1,9.09,1.68l-1.22,4.03c-1.86-0.88-4.52-1.58-7.71-1.58c-9,0-14.95,5.75-14.95,15.81
					c0,9.38,5.4,15.36,14.68,15.36c3.04,0,6.11-0.61,8.12-1.57L2215.14-646.13z"/>
				<path class="st1" d="M2223.25-647.84c0-2.1,1.41-3.61,3.39-3.61c2.01,0,3.35,1.49,3.36,3.61c0,2.01-1.33,3.56-3.39,3.56
					C2224.61-644.28,2223.22-645.84,2223.25-647.84z"/>
			</g>
		</g>
	</g>
	<g>
		<path class="st1" d="M1575.33-680.37c3.18-4.96,8.84-6.52,13.75-2.88c-4-6.55-7.26-13.33-11.99-19.17
			c-0.68-0.63-1.35-1.2-2.01-1.72c-16.15-12.64-27.44,8.43-35.09,21.23c-7.65,12.81-15.63,25.95-23.55,38.8
			c-7.81,12.69-16.76,25.07-23.81,38.19c-1.43,2.67,5.18,4.09,6.74,4.45c3.02,0.7,6.05,0.98,9.05,0.87
			c8.39-0.31,16.45-3.72,22.69-9.7c9.49-9.1,15.45-21.05,21.6-32.49c6.91-12.84,14.7-25.24,22.57-37.52
			C1575.3-680.32,1575.32-680.34,1575.33-680.37z"/>
		<path class="st1" d="M1642.21-702.42c-0.68-0.63-1.35-1.2-2.01-1.72c-16.15-12.64-27.44,8.43-35.09,21.23
			c-7.65,12.81-15.63,25.95-23.55,38.8c-7.81,12.69-16.76,25.07-23.81,38.19c-1.43,2.67,5.18,4.09,6.74,4.45
			c3.02,0.7,6.05,0.98,9.05,0.87c8.39-0.31,16.45-3.72,22.69-9.7c9.49-9.1,15.45-21.05,21.6-32.49
			c6.91-12.84,14.7-25.24,22.57-37.52c0.01-0.02,0.03-0.04,0.04-0.07c3.18-4.96,8.84-6.52,13.75-2.88
			C1650.2-689.8,1646.94-696.57,1642.21-702.42z"/>
	</g>
</g>
<g>
	<g>
		<g>
			<g>
				<path class="st1" d="M72.37,268.12l-1.49,4.54h-1.94l4.91-14.45h2.24l4.94,14.45h-2l-1.55-4.54H72.37z M77.11,266.66l-1.43-4.16
					c-0.31-0.95-0.53-1.81-0.74-2.64h-0.05c-0.21,0.84-0.43,1.73-0.72,2.61l-1.42,4.18H77.11z"/>
				<path class="st1" d="M87.14,270.39c0.83,0.52,2.05,0.94,3.34,0.94c1.91,0,3.03-1,3.03-2.46c0-1.34-0.78-2.13-2.74-2.86
					c-2.36-0.83-3.82-2.08-3.82-4.1c0-2.25,1.87-3.92,4.68-3.92c1.47,0,2.56,0.34,3.19,0.7l-0.52,1.53
					c-0.46-0.27-1.43-0.69-2.73-0.69c-1.99,0-2.74,1.18-2.74,2.16c0,1.34,0.88,2,2.87,2.77c2.45,0.96,3.69,2.14,3.69,4.26
					c0,2.22-1.63,4.17-5.06,4.17c-1.4,0-2.92-0.42-3.69-0.94L87.14,270.39z"/>
				<path class="st1" d="M104.07,258.21v8.57c0,3.22,1.43,4.59,3.38,4.59c2.13,0,3.52-1.42,3.52-4.59v-8.57h1.88v8.44
					c0,4.44-2.34,6.25-5.47,6.25c-2.95,0-5.18-1.68-5.18-6.18v-8.51H104.07z"/>
				<path class="st1" d="M120.32,272.66v-14.45h2.05l4.63,7.31c1.05,1.7,1.89,3.21,2.58,4.71l0.05-0.02
					c-0.17-1.93-0.2-3.69-0.2-5.93v-6.06h1.76v14.45h-1.89l-4.6-7.33c-0.99-1.62-1.97-3.27-2.69-4.84l-0.06,0.02
					c0.11,1.83,0.14,3.58,0.14,5.96v6.18H120.32z"/>
				<path class="st1" d="M141.43,259.79h-4.4v-1.58h10.7v1.58h-4.43v12.87h-1.88V259.79z"/>
				<path class="st1" d="M165.36,265.29c0,4.96-3.02,7.61-6.71,7.61c-3.83,0-6.5-2.97-6.5-7.34c0-4.58,2.84-7.59,6.69-7.59
					C162.79,257.98,165.36,261,165.36,265.29z M154.13,265.52c0,3.09,1.68,5.86,4.62,5.86c2.97,0,4.63-2.72,4.63-6.01
					c0-2.88-1.5-5.88-4.61-5.88C155.67,259.49,154.13,262.36,154.13,265.52z"/>
				<path class="st1" d="M171.77,270.39c0.83,0.52,2.05,0.94,3.34,0.94c1.91,0,3.03-1,3.03-2.46c0-1.34-0.78-2.13-2.74-2.86
					c-2.36-0.83-3.82-2.08-3.82-4.1c0-2.25,1.87-3.92,4.68-3.92c1.47,0,2.56,0.34,3.19,0.7l-0.52,1.53
					c-0.46-0.27-1.43-0.69-2.73-0.69c-1.99,0-2.74,1.18-2.74,2.16c0,1.34,0.88,2,2.87,2.77c2.45,0.96,3.69,2.14,3.69,4.26
					c0,2.22-1.63,4.17-5.06,4.17c-1.4,0-2.92-0.42-3.69-0.94L171.77,270.39z"/>
				<path class="st1" d="M195.62,258.38c0.9-0.16,2.08-0.29,3.59-0.29c1.83,0,3.19,0.42,4.05,1.2c0.78,0.69,1.27,1.74,1.27,3.03
					c0,1.31-0.39,2.34-1.12,3.09c-0.99,1.06-2.59,1.58-4.42,1.58c-0.57,0-1.08-0.02-1.51-0.14v5.8h-1.86V258.38z M197.48,265.35
					c0.42,0.12,0.93,0.16,1.55,0.16c2.26,0,3.63-1.11,3.63-3.08c0-1.91-1.37-2.85-3.42-2.85c-0.82,0-1.44,0.08-1.77,0.15V265.35z"/>
				<path class="st1" d="M213.14,258.21v8.57c0,3.22,1.43,4.59,3.38,4.59c2.13,0,3.52-1.42,3.52-4.59v-8.57h1.88v8.44
					c0,4.44-2.34,6.25-5.47,6.25c-2.95,0-5.18-1.68-5.18-6.18v-8.51H213.14z M219.78,254.93l-2.73,2.5h-1.53l1.98-2.5H219.78z"/>
				<path class="st1" d="M229.39,258.41c0.82-0.18,2.12-0.31,3.41-0.31c1.87,0,3.07,0.32,3.97,1.05c0.75,0.57,1.21,1.43,1.21,2.56
					c0,1.39-0.93,2.63-2.44,3.16v0.06c1.38,0.33,2.98,1.46,2.98,3.63c0,1.23-0.49,2.19-1.24,2.88c-0.99,0.93-2.62,1.36-4.99,1.36
					c-1.29,0-2.27-0.09-2.9-0.16V258.41z M231.25,264.33h1.71c1.95,0,3.11-1.04,3.11-2.44c0-1.68-1.27-2.35-3.16-2.35
					c-0.87,0-1.36,0.06-1.67,0.14V264.33z M231.25,271.24c0.38,0.08,0.9,0.1,1.57,0.1c1.94,0,3.72-0.71,3.72-2.81
					c0-1.97-1.7-2.79-3.74-2.8h-1.56V271.24z"/>
				<path class="st1" d="M245.25,258.21h1.88v12.88h6.18v1.57h-8.06V258.21z"/>
				<path class="st1" d="M261.5,258.21v14.45h-1.88v-14.45H261.5z"/>
				<path class="st1" d="M279.09,272.2c-0.67,0.34-2.06,0.69-3.82,0.69c-4.07,0-7.13-2.58-7.13-7.32c0-4.54,3.06-7.58,7.55-7.58
					c1.78,0,2.94,0.38,3.43,0.64l-0.46,1.52c-0.7-0.33-1.71-0.6-2.91-0.6c-3.39,0-5.64,2.17-5.64,5.97c0,3.54,2.04,5.8,5.54,5.8
					c1.15,0,2.3-0.23,3.06-0.59L279.09,272.2z"/>
				<path class="st1" d="M297.58,265.29c0,4.96-3.02,7.61-6.71,7.61c-3.83,0-6.5-2.97-6.5-7.34c0-4.58,2.84-7.59,6.69-7.59
					C295.02,257.98,297.58,261,297.58,265.29z M286.35,265.52c0,3.09,1.68,5.86,4.62,5.86c2.97,0,4.63-2.72,4.63-6.01
					c0-2.88-1.5-5.88-4.61-5.88C287.9,259.49,286.35,262.36,286.35,265.52z"/>
				<path class="st1" d="M304,270.39c0.83,0.52,2.05,0.94,3.34,0.94c1.91,0,3.03-1,3.03-2.46c0-1.34-0.78-2.13-2.74-2.86
					c-2.36-0.83-3.82-2.08-3.82-4.1c0-2.25,1.87-3.92,4.68-3.92c1.47,0,2.56,0.34,3.19,0.7l-0.52,1.53
					c-0.46-0.27-1.43-0.69-2.73-0.69c-1.99,0-2.74,1.18-2.74,2.16c0,1.34,0.88,2,2.87,2.77c2.45,0.96,3.69,2.14,3.69,4.26
					c0,2.22-1.63,4.17-5.06,4.17c-1.4,0-2.92-0.42-3.69-0.94L304,270.39z"/>
				<path class="st1" d="M330.09,272.66v-6.13l-4.58-8.33h2.14l2.03,3.99c0.55,1.1,0.99,1.97,1.44,2.98h0.04
					c0.4-0.95,0.89-1.89,1.45-2.99l2.08-3.98h2.12l-4.84,8.3v6.16H330.09z"/>
				<path class="st1" d="M361.59,272.2c-0.67,0.34-2.06,0.69-3.82,0.69c-4.07,0-7.13-2.58-7.13-7.32c0-4.54,3.06-7.58,7.55-7.58
					c1.78,0,2.94,0.38,3.43,0.64l-0.46,1.52c-0.7-0.33-1.71-0.6-2.91-0.6c-3.39,0-5.64,2.17-5.64,5.97c0,3.54,2.04,5.8,5.54,5.8
					c1.15,0,2.3-0.23,3.06-0.59L361.59,272.2z"/>
				<path class="st1" d="M380.08,265.29c0,4.96-3.02,7.61-6.71,7.61c-3.83,0-6.5-2.97-6.5-7.34c0-4.58,2.84-7.59,6.69-7.59
					C377.52,257.98,380.08,261,380.08,265.29z M368.85,265.52c0,3.09,1.68,5.86,4.62,5.86c2.97,0,4.63-2.72,4.63-6.01
					c0-2.88-1.5-5.88-4.61-5.88C370.4,259.49,368.85,262.36,368.85,265.52z"/>
				<path class="st1" d="M398.94,266.32c-0.11-2.01-0.25-4.45-0.23-6.24h-0.06c-0.5,1.68-1.1,3.5-1.82,5.48l-2.55,7.01h-1.41
					l-2.35-6.88c-0.69-2.04-1.25-3.9-1.66-5.61h-0.05c-0.05,1.8-0.14,4.21-0.28,6.38l-0.38,6.2h-1.77l1-14.45h2.39l2.46,7
					c0.59,1.77,1.08,3.36,1.45,4.87h0.06c0.38-1.46,0.88-3.06,1.53-4.87l2.58-7h2.39l0.9,14.45h-1.84L398.94,266.32z"/>
				<path class="st1" d="M410.09,258.21v8.57c0,3.22,1.43,4.59,3.38,4.59c2.13,0,3.52-1.42,3.52-4.59v-8.57h1.88v8.44
					c0,4.44-2.34,6.25-5.47,6.25c-2.95,0-5.18-1.68-5.18-6.18v-8.51H410.09z"/>
				<path class="st1" d="M426.34,272.66v-14.45h2.05l4.63,7.31c1.05,1.7,1.89,3.21,2.58,4.71l0.05-0.02
					c-0.17-1.93-0.2-3.69-0.2-5.93v-6.06h1.76v14.45h-1.89l-4.6-7.33c-0.99-1.62-1.97-3.27-2.69-4.84l-0.06,0.02
					c0.11,1.83,0.14,3.58,0.14,5.96v6.18H426.34z"/>
				<path class="st1" d="M446.57,258.21v14.45h-1.88v-14.45H446.57z"/>
				<path class="st1" d="M464.17,272.2c-0.67,0.34-2.06,0.69-3.82,0.69c-4.07,0-7.13-2.58-7.13-7.32c0-4.54,3.06-7.58,7.55-7.58
					c1.78,0,2.94,0.38,3.43,0.64l-0.46,1.52c-0.7-0.33-1.71-0.6-2.91-0.6c-3.39,0-5.64,2.17-5.64,5.97c0,3.54,2.04,5.8,5.54,5.8
					c1.15,0,2.3-0.23,3.06-0.59L464.17,272.2z"/>
				<path class="st1" d="M473.17,268.12l-1.5,4.54h-1.93l4.91-14.45h2.24l4.94,14.45h-2l-1.55-4.54H473.17z M477.92,266.66
					l-1.43-4.16c-0.31-0.95-0.53-1.81-0.74-2.64h-0.05c-0.21,0.84-0.43,1.73-0.72,2.61l-1.42,4.18H477.92z"/>
				<path class="st1" d="M497.98,272.2c-0.67,0.34-2.06,0.69-3.82,0.69c-4.07,0-7.13-2.58-7.13-7.32c0-4.54,3.06-7.58,7.55-7.58
					c1.78,0,2.94,0.38,3.43,0.64l-0.46,1.52c-0.7-0.33-1.71-0.6-2.91-0.6c-3.39,0-5.64,2.17-5.64,5.97c0,3.54,2.04,5.8,5.54,5.8
					c1.15,0,2.3-0.23,3.06-0.59L497.98,272.2z"/>
				<path class="st1" d="M506.43,258.21v14.45h-1.88v-14.45H506.43z"/>
				<path class="st1" d="M526.29,265.29c0,4.96-3.02,7.61-6.71,7.61c-3.83,0-6.5-2.97-6.5-7.34c0-4.58,2.84-7.59,6.69-7.59
					C523.72,257.98,526.29,261,526.29,265.29z M515.06,265.52c0,3.09,1.68,5.86,4.62,5.86c2.97,0,4.63-2.72,4.63-6.01
					c0-2.88-1.5-5.88-4.61-5.88C516.6,259.49,515.06,262.36,515.06,265.52z M522.81,254.88l-2.73,2.5h-1.53l1.98-2.5H522.81z"/>
				<path class="st1" d="M532.95,272.66v-14.45H535l4.63,7.31c1.05,1.7,1.9,3.21,2.58,4.71l0.05-0.02c-0.17-1.93-0.2-3.69-0.2-5.93
					v-6.06h1.76v14.45h-1.89l-4.6-7.33c-0.99-1.62-1.97-3.27-2.69-4.84l-0.06,0.02c0.11,1.83,0.14,3.58,0.14,5.96v6.18H532.95z"/>
			</g>
		</g>
		<g>
			<g>
				<path class="st1" d="M68.71,228.86c-0.3-5.33-0.65-11.79-0.61-16.53h-0.16c-1.32,4.45-2.91,9.28-4.82,14.53l-6.76,18.59h-3.74
					l-6.24-18.25c-1.83-5.41-3.31-10.33-4.39-14.87h-0.13c-0.14,4.78-0.38,11.16-0.75,16.91l-1.02,16.45h-4.7l2.67-38.32h6.32
					l6.53,18.55c1.58,4.69,2.86,8.91,3.86,12.91h0.15c1-3.88,2.35-8.11,4.05-12.91l6.84-18.55h6.33l2.38,38.32h-4.87L68.71,228.86z"
					/>
				<path class="st1" d="M90.99,233.64l-3.96,12.05H81.9l13.04-38.32h5.95l13.09,38.32h-5.29l-4.1-12.05H90.99z M103.58,229.77
					l-3.79-11.03c-0.83-2.51-1.41-4.79-1.97-6.99h-0.14c-0.55,2.24-1.15,4.58-1.9,6.93L92,229.77H103.58z"/>
				<path class="st1" d="M151.18,243.96c-2.22,0.84-6.62,2.11-11.78,2.11c-5.81,0-10.6-1.47-14.33-5.07
					c-3.3-3.18-5.34-8.26-5.33-14.23c0.02-11.43,7.88-19.79,20.72-19.79c4.43,0,7.94,0.97,9.59,1.76l-1.24,4.04
					c-2.04-0.93-4.6-1.64-8.46-1.64c-9.3,0-15.39,5.79-15.39,15.39c0,9.71,5.83,15.46,14.79,15.46c3.24,0,5.43-0.46,6.58-1.03
					v-11.41h-7.75v-3.96h12.62V243.96z"/>
				<path class="st1" d="M161.96,245.69v-38.32h5.44l12.28,19.37c2.8,4.5,5.03,8.52,6.84,12.48l0.13-0.06
					c-0.45-5.12-0.54-9.79-0.54-15.73v-16.06h4.66v38.32h-5.03l-12.18-19.43c-2.64-4.3-5.22-8.67-7.13-12.83l-0.17,0.06
					c0.3,4.85,0.37,9.47,0.37,15.81v16.39H161.96z"/>
				<path class="st1" d="M208.85,233.64l-3.96,12.05h-5.13l13.04-38.32h5.95l13.09,38.32h-5.29l-4.1-12.05H208.85z M221.44,229.77
					l-3.79-11.03c-0.83-2.51-1.41-4.79-1.97-6.99h-0.14c-0.55,2.24-1.15,4.58-1.9,6.93l-3.77,11.09H221.44z"/>
				<path class="st1" d="M240.68,245.69v-38.32h5.44l12.28,19.37c2.8,4.5,5.03,8.52,6.84,12.48l0.13-0.06
					c-0.45-5.12-0.54-9.79-0.54-15.73v-16.06h4.66v38.32h-5.03l-12.18-19.43c-2.64-4.3-5.22-8.67-7.13-12.83l-0.17,0.06
					c0.3,4.85,0.37,9.47,0.37,15.81v16.39H240.68z"/>
				<path class="st1" d="M286.33,207.37v38.32h-4.97v-38.32H286.33z"/>
				<path class="st1" d="M298.19,245.69v-38.32h5.44l12.28,19.37c2.8,4.5,5.03,8.52,6.84,12.48l0.13-0.06
					c-0.45-5.12-0.54-9.79-0.54-15.73v-16.06h4.66v38.32h-5.03l-12.18-19.43c-2.64-4.3-5.22-8.67-7.13-12.83l-0.17,0.06
					c0.29,4.85,0.36,9.47,0.36,15.81v16.39H298.19z"/>
				<path class="st1" d="M343.84,207.37v38.32h-4.98v-38.32H343.84z"/>
				<path class="st1" d="M395.01,245.69c-1.1-1.1-2.09-2.18-3.58-3.74c-3.34,3.04-6.98,4.36-11.19,4.36
					c-7.44,0-11.78-5.01-11.78-10.75c0-5.23,3.14-8.79,7.47-11.19l0.01-0.18c-1.97-2.48-3.19-5.28-3.19-8
					c0-4.69,3.38-9.46,9.74-9.46c4.77,0,8.48,3.16,8.48,8.14c0,4.02-2.36,7.2-8.41,10.22l-0.01,0.2c3.25,3.76,6.88,7.92,9.34,10.66
					c1.77-2.68,2.94-6.37,3.69-11.18h4.53c-1.03,6.02-2.66,10.78-5.52,14.14c2.06,2.19,4.04,4.33,6.35,6.78H395.01z M388.96,239.1
					c-2.27-2.49-6.54-7.18-10.76-12.07c-2.09,1.33-4.95,3.75-4.95,7.78c0,4.41,3.22,7.74,7.82,7.74
					C384.4,242.55,387.14,241.09,388.96,239.1z M377.31,215.71c0,2.75,1.29,4.86,2.91,6.9c3.89-2.22,6.36-4.26,6.36-7.5
					c0-2.37-1.33-4.96-4.46-4.96C378.98,210.15,377.31,212.79,377.31,215.71z"/>
				<path class="st1" d="M430.17,233.64l-3.96,12.05h-5.13l13.04-38.32h5.95l13.09,38.32h-5.29l-4.1-12.05H430.17z M442.76,229.77
					l-3.79-11.03c-0.83-2.51-1.41-4.79-1.97-6.99h-0.14c-0.55,2.24-1.15,4.58-1.9,6.93l-3.77,11.09H442.76z"/>
				<path class="st1" d="M461.37,239.65c2.21,1.39,5.44,2.48,8.84,2.48c5.06,0,8.04-2.64,8.04-6.52c0-3.55-2.08-5.65-7.25-7.59
					c-6.25-2.22-10.13-5.51-10.13-10.87c0-5.97,4.96-10.39,12.42-10.39c3.89,0,6.78,0.9,8.46,1.85l-1.38,4.06
					c-1.22-0.72-3.78-1.82-7.24-1.82c-5.26,0-7.25,3.12-7.25,5.73c0,3.56,2.33,5.31,7.62,7.36c6.5,2.55,9.77,5.67,9.77,11.29
					c0,5.88-4.33,11.05-13.41,11.05c-3.7,0-7.74-1.12-9.79-2.5L461.37,239.65z"/>
				<path class="st1" d="M526.07,226.14c0,13.15-8.01,20.17-17.78,20.17c-10.16,0-17.22-7.87-17.22-19.45
					c0-12.14,7.52-20.12,17.75-20.12C519.27,206.74,526.07,214.76,526.07,226.14z M496.29,226.75c0,8.2,4.45,15.54,12.26,15.54
					c7.86,0,12.28-7.22,12.28-15.92c0-7.63-3.98-15.59-12.21-15.59C500.39,210.76,496.29,218.36,496.29,226.75z"/>
				<path class="st1" d="M562.51,244.46c-1.79,0.9-5.46,1.83-10.13,1.83c-10.79,0-18.89-6.83-18.89-19.41
					c0-12.03,8.11-20.11,20-20.11c4.73,0,7.79,1,9.09,1.68l-1.22,4.03c-1.86-0.88-4.52-1.58-7.71-1.58c-9,0-14.95,5.75-14.95,15.81
					c0,9.38,5.4,15.36,14.68,15.36c3.04,0,6.11-0.61,8.12-1.57L562.51,244.46z"/>
				<path class="st1" d="M570.62,242.75c0-2.1,1.41-3.61,3.39-3.61c2.01,0,3.35,1.49,3.36,3.61c0,2.01-1.33,3.56-3.39,3.56
					C571.99,246.31,570.59,244.75,570.62,242.75z"/>
			</g>
		</g>
	</g>
	<g>
		<g>
			<linearGradient id="SVGID_1_" gradientUnits="userSpaceOnUse" x1="239.6379" y1="157.6865" x2="291.3569" y2="74.8228">
				<stop  offset="0.0616" style="stop-color:#399DD7"/>
				<stop  offset="0.9907" style="stop-color:#50B4BC"/>
				<stop  offset="1" style="stop-color:#50B4BC"/>
			</linearGradient>
			<path class="st2" d="M291.19,88.44c4.43-7.41,10.01-17.43,16.94-22.86c-16.15-12.64-27.44,8.43-35.09,21.23
				c-7.65,12.81-15.63,25.95-23.55,38.8c-7.81,12.69-16.76,25.07-23.81,38.19c-1.43,2.67,5.18,4.09,6.74,4.45
				c3.02,0.7,6.05,0.98,9.05,0.87c7.38-13.48,16.57-26.27,24.63-39.35C274.55,116.08,283.04,102.08,291.19,88.44z"/>
			<linearGradient id="SVGID_2_" gradientUnits="userSpaceOnUse" x1="306.9019" y1="81.9678" x2="261.2231" y2="165.3978">
				<stop  offset="0.0616" style="stop-color:#399DD7"/>
				<stop  offset="0.9907" style="stop-color:#50B4BC"/>
				<stop  offset="1" style="stop-color:#50B4BC"/>
			</linearGradient>
			<path class="st3" d="M285.78,126.93c7.43-12.58,14.7-25.24,22.57-37.52c0.01-0.02,0.03-0.04,0.04-0.07
				c3.18-4.96,8.84-6.52,13.75-2.88c-4-6.55-7.26-13.33-11.99-19.17c-0.68-0.63-1.35-1.2-2.01-1.72
				c-6.93,5.43-12.51,15.45-16.94,22.86c-8.15,13.64-16.65,27.64-25.08,41.33c-8.06,13.08-17.25,25.87-24.63,39.35
				c8.39-0.31,16.45-3.72,22.69-9.7C273.67,150.32,279.17,138.11,285.78,126.93z"/>
		</g>
		<g>
			<linearGradient id="SVGID_3_" gradientUnits="userSpaceOnUse" x1="304.7586" y1="157.6865" x2="356.4776" y2="74.8228">
				<stop  offset="0.0616" style="stop-color:#399DD7"/>
				<stop  offset="0.9907" style="stop-color:#50B4BC"/>
				<stop  offset="1" style="stop-color:#50B4BC"/>
			</linearGradient>
			<path class="st4" d="M356.31,88.44c4.43-7.41,10.01-17.43,16.94-22.86c-16.15-12.64-27.44,8.43-35.09,21.23
				c-7.65,12.81-15.63,25.95-23.55,38.8c-7.81,12.69-16.76,25.07-23.81,38.19c-1.43,2.67,5.18,4.09,6.74,4.45
				c3.02,0.7,6.05,0.98,9.05,0.87c7.38-13.48,16.57-26.27,24.63-39.35C339.67,116.08,348.16,102.08,356.31,88.44z"/>
			<linearGradient id="SVGID_4_" gradientUnits="userSpaceOnUse" x1="372.0226" y1="81.9678" x2="326.3438" y2="165.3978">
				<stop  offset="0.0616" style="stop-color:#399DD7"/>
				<stop  offset="0.9907" style="stop-color:#50B4BC"/>
				<stop  offset="1" style="stop-color:#50B4BC"/>
			</linearGradient>
			<path class="st5" d="M350.9,126.93c7.45-12.71,14.7-25.24,22.57-37.52c0.01-0.02,0.03-0.04,0.04-0.07
				c3.18-4.96,8.84-6.52,13.75-2.88c-4-6.55-7.26-13.33-11.99-19.17c-0.68-0.63-1.35-1.2-2.01-1.72
				c-6.93,5.43-12.51,15.45-16.94,22.86c-8.15,13.64-16.65,27.64-25.08,41.33c-8.06,13.08-17.25,25.87-24.63,39.35
				c8.39-0.31,16.45-3.72,22.69-9.7C338.79,150.32,344.33,138.13,350.9,126.93z"/>
		</g>
	</g>
</g>
</svg>
