<?xml version="1.0" encoding="utf-8"?>
<!-- Generator: Adobe Illustrator 24.0.2, SVG Export Plug-In . SVG Version: 6.00 Build 0)  -->
<svg version="1.1" id="Capa_1" xmlns="http://www.w3.org/2000/svg" xmlns:xlink="http://www.w3.org/1999/xlink" x="0px" y="0px"
	 viewBox="0 0 275 184" style="enable-background:new 0 0 275 184;" xml:space="preserve">
<style type="text/css">
	.st0{fill:url(#SVGID_1_);}
	.st1{fill:url(#SVGID_2_);}
	.st2{fill:url(#SVGID_3_);}
	.st3{fill:url(#SVGID_4_);}
</style>
<g>
	<g>
		
			<linearGradient id="SVGID_1_" gradientUnits="userSpaceOnUse" x1="83.8809" y1="637.897" x2="135.6" y2="720.7608" gradientTransform="matrix(1 0 0 -1 0 770)">
			<stop  offset="0.0616" style="stop-color:#399DD7"/>
			<stop  offset="0.9907" style="stop-color:#50B4BC"/>
			<stop  offset="1" style="stop-color:#50B4BC"/>
		</linearGradient>
		<path class="st0" d="M135.43,62.86c4.43-7.41,10.01-17.43,16.94-22.86c-16.15-12.64-27.44,8.43-35.09,21.23
			c-7.65,12.81-15.63,25.95-23.55,38.8c-7.81,12.69-16.76,25.07-23.81,38.19c-1.43,2.67,5.18,4.09,6.74,4.45
			c3.02,0.7,6.05,0.98,9.05,0.87c7.38-13.48,16.57-26.27,24.63-39.35C118.79,90.5,127.28,76.5,135.43,62.86z"/>
		
			<linearGradient id="SVGID_2_" gradientUnits="userSpaceOnUse" x1="151.1371" y1="713.6201" x2="105.4582" y2="630.1901" gradientTransform="matrix(1 0 0 -1 0 770)">
			<stop  offset="0.0616" style="stop-color:#399DD7"/>
			<stop  offset="0.9907" style="stop-color:#50B4BC"/>
			<stop  offset="1" style="stop-color:#50B4BC"/>
		</linearGradient>
		<path class="st1" d="M130.01,101.35c7.43-12.58,14.7-25.24,22.57-37.52c0.01-0.02,0.03-0.04,0.04-0.07
			c3.18-4.96,8.84-6.52,13.75-2.88c-4-6.55-7.26-13.33-11.99-19.17c-0.68-0.63-1.35-1.2-2.01-1.72
			c-6.93,5.43-12.51,15.45-16.94,22.86c-8.15,13.64-16.65,27.64-25.08,41.33c-8.06,13.08-17.25,25.87-24.63,39.35
			c8.39-0.31,16.45-3.72,22.69-9.7C117.91,124.74,123.41,112.53,130.01,101.35z"/>
	</g>
	<g>
		
			<linearGradient id="SVGID_3_" gradientUnits="userSpaceOnUse" x1="149.0013" y1="637.8973" x2="200.7203" y2="720.7611" gradientTransform="matrix(1 0 0 -1 0 770)">
			<stop  offset="0.0616" style="stop-color:#399DD7"/>
			<stop  offset="0.9907" style="stop-color:#50B4BC"/>
			<stop  offset="1" style="stop-color:#50B4BC"/>
		</linearGradient>
		<path class="st2" d="M200.55,62.86c4.43-7.41,10.01-17.43,16.94-22.86c-16.15-12.64-27.44,8.43-35.09,21.23
			c-7.65,12.81-15.63,25.95-23.55,38.8c-7.81,12.69-16.76,25.07-23.81,38.19c-1.43,2.67,5.18,4.09,6.74,4.45
			c3.02,0.7,6.05,0.98,9.05,0.87c7.38-13.48,16.57-26.27,24.63-39.35C183.91,90.5,192.4,76.5,200.55,62.86z"/>
		
			<linearGradient id="SVGID_4_" gradientUnits="userSpaceOnUse" x1="216.2649" y1="713.6162" x2="170.586" y2="630.1862" gradientTransform="matrix(1 0 0 -1 0 770)">
			<stop  offset="0.0616" style="stop-color:#399DD7"/>
			<stop  offset="0.9907" style="stop-color:#50B4BC"/>
			<stop  offset="1" style="stop-color:#50B4BC"/>
		</linearGradient>
		<path class="st3" d="M195.14,101.35c7.45-12.71,14.7-25.24,22.57-37.52c0.01-0.02,0.03-0.04,0.04-0.07
			c3.18-4.96,8.84-6.52,13.75-2.88c-4-6.55-7.26-13.33-11.99-19.17c-0.68-0.63-1.35-1.2-2.01-1.72
			c-6.93,5.43-12.51,15.45-16.94,22.86c-8.15,13.64-16.65,27.64-25.08,41.33c-8.06,13.08-17.25,25.87-24.63,39.35
			c8.39-0.31,16.45-3.72,22.69-9.7C183.03,124.74,188.57,112.56,195.14,101.35z"/>
	</g>
</g>
</svg>
